<svg width="125" height="24" viewBox="0 0 125 24" fill="none" xmlns="http://www.w3.org/2000/svg">
<g clip-path="url(#clip0_96_566)">
<path d="M12.2918 1.30999C12.3594 1.31059 12.4269 1.311 12.4944 1.31123C12.6719 1.3124 12.8493 1.31636 13.0267 1.32084C13.1696 1.32398 13.3124 1.32512 13.4553 1.32615C13.6285 1.32744 13.8016 1.32969 13.9748 1.33217C14.0067 1.33259 14.0387 1.33302 14.0716 1.33346C15.1958 1.35116 16.3465 1.53552 17.3448 2.06678C17.4077 2.10005 17.4711 2.13223 17.5347 2.16422C18.0728 2.43696 18.5554 2.78172 18.998 3.18695C19.0681 3.25072 19.1396 3.31157 19.2127 3.37197C20.4685 4.45473 21.4104 6.3513 21.5211 7.98284C21.6056 9.45098 21.4492 10.8322 20.785 12.1659C20.7715 12.193 20.758 12.2202 20.7441 12.2482C20.5469 12.6409 20.3292 13.0081 20.0634 13.3596C20.0492 13.3786 20.0351 13.3976 20.0205 13.4171C19.4016 14.239 18.6226 14.9372 17.7107 15.4308C17.6069 15.4872 17.506 15.5472 17.4047 15.608C17.2387 15.7036 17.0707 15.774 16.89 15.8383C16.8226 15.8623 16.7557 15.8878 16.6896 15.9151C15.8904 16.2436 14.9878 16.3781 14.127 16.3924C14.2611 16.5475 14.3971 16.6942 14.5513 16.83C14.5885 16.8632 14.6257 16.8965 14.6628 16.9298C14.6919 16.9559 14.6919 16.9559 14.7217 16.9825C14.8312 17.0812 14.9392 17.1815 15.0474 17.2817C15.2313 17.4516 15.4163 17.6202 15.6027 17.7876C15.6749 17.8526 15.7467 17.918 15.8184 17.9837C15.8385 18.0021 15.8586 18.0205 15.8792 18.0394C15.9176 18.0746 15.9559 18.1098 15.9942 18.1451C16.0912 18.2341 16.1895 18.3213 16.2896 18.4069C16.4218 18.5201 16.5497 18.6373 16.677 18.7557C16.8652 18.93 17.0544 19.1029 17.2452 19.2743C17.3486 19.3673 17.4515 19.4607 17.5544 19.5543C17.7561 19.7376 17.9586 19.9203 18.1612 20.1027C18.2261 20.1612 18.291 20.2197 18.3559 20.2782C18.3719 20.2926 18.388 20.3071 18.4046 20.322C18.4916 20.4005 18.5784 20.4792 18.665 20.5581C18.8842 20.7585 18.8842 20.7585 19.1082 20.9537C19.2596 21.0825 19.4046 21.218 19.5506 21.3526C19.6932 21.4839 19.8372 21.6135 19.9828 21.7415C20.0759 21.8238 20.1681 21.9069 20.2602 21.9902C20.5757 22.2786 20.5757 22.2786 20.9039 22.5528C20.9296 22.5747 20.9553 22.5967 20.9818 22.6193C20.9818 22.6406 20.9818 22.6619 20.9818 22.6838C20.4486 22.6914 19.9155 22.6971 19.3823 22.7006C19.1347 22.7022 18.8872 22.7045 18.6396 22.7082C18.4237 22.7114 18.2078 22.7135 17.9919 22.7142C17.8776 22.7146 17.7635 22.7156 17.6492 22.718C17.5214 22.7206 17.3937 22.7206 17.2658 22.7205C17.2284 22.7216 17.1909 22.7228 17.1523 22.724C16.9313 22.7212 16.825 22.6821 16.6668 22.5268C16.6179 22.4719 16.5694 22.4167 16.5213 22.3612C16.4817 22.3254 16.4416 22.2902 16.4003 22.2563C16.269 22.1457 16.1431 22.0299 16.017 21.9135C15.8815 21.7886 15.7458 21.664 15.607 21.5425C15.4327 21.3893 15.2632 21.2312 15.0932 21.0734C14.8819 20.8773 14.6688 20.6832 14.455 20.4899C14.1934 20.2534 13.9337 20.0152 13.6753 19.7754C13.5425 19.6523 13.409 19.53 13.2743 19.4091C13.111 19.2625 12.9495 19.1143 12.7884 18.9654C12.7653 18.9441 12.7421 18.9227 12.7183 18.9007C12.6121 18.8024 12.5071 18.7032 12.4047 18.601C12.3054 18.5025 12.2011 18.4115 12.0944 18.3209C11.9827 18.2248 11.8753 18.1242 11.7676 18.0237C11.7185 17.9781 11.6694 17.9325 11.6203 17.8869C11.5954 17.8638 11.5706 17.8407 11.545 17.8168C11.4266 17.7068 11.3081 17.5971 11.1895 17.4874C11.1666 17.4661 11.1436 17.4448 11.1199 17.4229C10.6213 16.9612 10.6213 16.9612 10.1192 16.503C10.0267 16.4192 9.93435 16.3352 9.84237 16.2509C9.81219 16.2232 9.8122 16.2232 9.78141 16.195C9.74327 16.16 9.70516 16.125 9.66709 16.09C9.57096 16.0019 9.4736 15.9156 9.37436 15.8308C9.23671 15.7129 9.10393 15.5904 8.97155 15.4669C8.6826 15.1983 8.3925 14.9311 8.09626 14.6703C7.95156 14.5426 7.8084 14.4132 7.66579 14.2832C7.64415 14.2636 7.62251 14.244 7.60021 14.2238C7.57991 14.2052 7.55961 14.1866 7.5387 14.1675C7.52052 14.1509 7.50234 14.1343 7.48361 14.1173C7.43621 14.0694 7.4362 14.0694 7.37061 13.9726C7.40341 13.9726 7.43621 13.9725 7.47001 13.9724C8.27113 13.9705 9.07224 13.968 9.87335 13.965C10.2608 13.9636 10.6482 13.9623 11.0356 13.9615C11.3736 13.9607 11.7116 13.9596 12.0496 13.9582C12.2283 13.9574 12.407 13.9568 12.5857 13.9566C12.7545 13.9564 12.9232 13.9557 13.092 13.9548C13.1534 13.9545 13.2148 13.9544 13.2761 13.9544C14.5558 13.9552 15.7951 13.6023 16.7836 12.7789C16.8013 12.7643 16.8189 12.7497 16.837 12.7347C17.3134 12.3351 17.6543 11.8585 17.9644 11.327C17.9786 11.3029 17.9929 11.2788 18.0075 11.2539C18.0961 11.1014 18.17 10.9496 18.2308 10.7846C18.2391 10.7625 18.2474 10.7404 18.256 10.7177C18.3162 10.5538 18.3639 10.3889 18.4025 10.2187C18.4235 10.1333 18.4235 10.1333 18.4554 10.045C18.5685 9.69189 18.5681 9.30444 18.567 8.93746C18.567 8.91442 18.567 8.89138 18.567 8.86764C18.5648 8.25845 18.4647 7.696 18.2267 7.13271C18.2182 7.11223 18.2096 7.09176 18.2008 7.07067C17.9978 6.59549 17.7198 6.16466 17.374 5.77763C17.3501 5.75018 17.3261 5.72273 17.3015 5.69445C16.895 5.23712 16.4207 4.90168 15.8816 4.61324C15.8133 4.57657 15.7457 4.5388 15.6794 4.4988C15.0698 4.14827 14.2647 4.06414 13.5759 4.06103C13.5312 4.06072 13.4866 4.0604 13.442 4.06006C13.3218 4.0592 13.2016 4.05851 13.0814 4.05787C12.9554 4.05716 12.8294 4.05628 12.7035 4.05541C12.4653 4.05381 12.2272 4.05236 11.9891 4.05096C11.7179 4.04936 11.4466 4.04759 11.1753 4.04581C10.6177 4.04215 10.0601 4.0387 9.50247 4.03539C9.53871 3.97845 9.57509 3.92158 9.61151 3.86474C9.63174 3.83307 9.65197 3.80139 9.67282 3.76876C9.73351 3.67832 9.79893 3.59935 9.87234 3.51904C9.94825 3.43252 10.0183 3.34182 10.0887 3.25098C10.2072 3.09839 10.3274 2.9475 10.4498 2.7979C10.5788 2.63934 10.7059 2.47925 10.8333 2.31943C10.879 2.26208 10.9248 2.20476 10.9706 2.14746C10.9845 2.12991 10.9985 2.11237 11.0129 2.09429C11.0428 2.05699 11.0729 2.01986 11.1034 1.98299C11.1808 1.88854 11.2511 1.79502 11.313 1.69C11.5627 1.28872 11.843 1.29534 12.2918 1.30999Z" fill="#FF0126"/>
<path d="M10.2128 6.92896C10.2128 6.70433 10.4443 6.54558 10.6444 6.65385C10.7013 6.68452 10.7013 6.68452 10.7593 6.71582C10.7998 6.73791 10.8404 6.76001 10.8822 6.78278C10.9465 6.81762 10.9465 6.81762 11.0121 6.85316C11.4019 7.06498 11.7892 7.28093 12.1762 7.49727C12.4446 7.64716 12.7137 7.79581 12.983 7.94401C13.0285 7.96899 13.0739 7.99397 13.1206 8.0197C13.3732 8.15842 13.6261 8.29643 13.8795 8.43377C13.9205 8.45601 13.9205 8.45602 13.9624 8.47871C14.0948 8.55054 14.2273 8.62227 14.36 8.69383C14.4611 8.74859 14.5616 8.80341 14.661 8.85978C14.8848 8.98677 14.9514 9.24837 14.7217 9.36481C14.4289 9.51656 14.1444 9.67868 13.8611 9.84569C13.5733 10.0148 13.2848 10.182 12.9917 10.3429C12.6376 10.5375 12.2871 10.7377 11.937 10.9386C11.8808 10.9708 11.8246 11.003 11.7684 11.0352C11.727 11.059 11.727 11.059 11.6847 11.0832C11.6573 11.0989 11.6298 11.1147 11.6016 11.1309C11.5743 11.1465 11.5469 11.1622 11.5188 11.1783C11.2604 11.3264 11.002 11.4744 10.7431 11.6217C10.7051 11.6434 10.667 11.6652 10.6279 11.6876C10.5932 11.7073 10.5584 11.727 10.5227 11.7473C10.4779 11.7729 10.4779 11.7729 10.4322 11.7989C10.3286 11.8522 10.2128 11.7665 10.2128 11.6515C10.2128 10.0911 10.2128 8.52891 10.2128 6.92896Z" fill="#FF0126"/>
<path d="M7.54239 9.81734L4.91701 9.88904L10.0238 1.11842C10.0632 0.971278 9.97395 0.778428 9.87235 0.792949L3.08177 1.21788C3.03931 1.22395 3.00482 1.26893 2.99434 1.33718L0.00412108 13.2163C-0.0200944 13.3613 0.0663426 13.5278 0.160361 13.5144L2.81453 13.0808L0.998524 23.7557C1.00326 23.9633 1.16945 24.0864 1.23332 23.9278L7.68471 10.1628C7.74249 10.0237 7.65157 9.80174 7.54239 9.81734Z" fill="#FF0126"/>
<path d="M117.291 22.5284C113.943 22.5284 111.791 19.7684 112.299 15.6873C112.837 10.872 116.813 7.08447 121.028 7.08447C123.031 7.08447 124.436 8.08274 124.376 9.66824C124.287 12.4282 120.101 14.4835 115.557 14.689C115.049 18.4178 116.454 20.7373 119.025 20.7373C121.327 20.7373 123.48 18.4765 124.436 14.7183L124.765 14.8064C123.779 19.2693 120.669 22.5284 117.291 22.5284ZM115.587 14.3954C120.072 13.955 121.895 10.9014 121.835 8.99294C121.776 8.11211 121.267 7.55425 120.46 7.55425C118.368 7.55425 116.185 10.6078 115.617 14.2779C115.617 14.3073 115.617 14.3366 115.587 14.3954Z" fill="#282828"/>
<path d="M108.141 4.38324C108.53 2.65095 108.052 2.12245 106.766 2.12245V1.7114C108.53 1.59395 110.085 1.38843 111.938 0.243347L112.177 0.448874L108.65 16.9204C108.141 19.2693 107.663 20.6199 108.351 20.6786C109.008 20.7667 110.144 19.328 110.981 16.0983L111.25 16.1863C110.085 21.119 107.992 22.7045 106.288 22.3815C104.644 22.0879 104.703 20.2382 105.331 17.3902L108.141 4.38324Z" fill="#282828"/>
<path d="M92.0533 22.5576C89.2432 22.5576 88.1669 19.3573 88.9442 15.7459C90.0204 10.8132 93.8769 7.1431 97.9127 7.1431C99.228 7.1431 100.155 7.61288 100.962 8.31754L103.234 6.82013L103.533 7.05502L101.351 16.9203C100.842 19.2692 100.364 20.6491 101.052 20.6785C101.679 20.7666 102.845 19.3279 103.682 16.1276L103.981 16.2156C102.786 21.1189 100.663 22.7044 98.9889 22.4108C97.3148 22.0878 97.4643 20.2381 98.1518 17.4194L98.6003 15.6871C97.1055 19.1811 94.5645 22.5576 92.0533 22.5576ZM92.5017 14.0429C91.0667 18.5352 91.9636 20.7959 93.548 20.7959C95.4912 20.7959 98.4508 16.4799 99.3476 12.0464C99.8559 9.34517 99.3476 7.64224 97.8828 7.64224C96.2685 7.64224 93.8769 9.78559 92.5017 14.0429Z" fill="#282828"/>
<path d="M80.7736 22.5283C77.3655 22.499 75.0935 19.7684 75.5719 15.7459C76.11 11.0482 79.9963 7.14319 84.2713 7.14319C86.5433 7.14319 87.8587 8.40571 87.9782 9.9912C88.0679 11.3124 87.3206 11.9584 86.5433 12.0758C85.5269 12.1933 84.8094 11.5767 84.7197 10.6958C84.6001 9.69759 85.497 9.1691 85.3774 8.40571C85.2877 7.78913 84.7795 7.52488 84.1218 7.5836C81.9096 7.67169 79.4582 10.7546 78.8902 14.4247C78.2624 18.2416 79.787 20.7373 82.3879 20.7373C84.7197 20.7373 86.9618 18.6233 87.8587 14.7477L88.1576 14.8064C87.1711 19.4161 84.0321 22.5283 80.7736 22.5283Z" fill="#282828"/>
<path d="M66.4775 22.4697C64.5044 22.4697 63.2489 21.765 62.4417 21.442C61.6644 21.1484 60.6181 21.1191 60.3192 22.2641H59.9006L61.4253 14.3954L61.8438 14.4248C61.4851 18.4179 62.8004 21.9705 66.5074 21.9999C68.7196 21.9999 70.603 20.7667 71.0514 18.8289C71.44 17.0966 70.6927 15.3349 68.9588 14.1018L65.9992 11.9878C63.7571 10.3729 62.7407 8.52321 63.3087 6.23306C64.0859 3.12079 67.3444 1.41785 70.2741 1.44721C72.2771 1.47658 73.3533 2.0638 74.1904 2.44549C74.878 2.7391 75.715 2.62165 76.0439 1.44721H76.4026L74.7883 9.05171L74.3697 9.02235C74.8779 4.6182 73.0245 2.03443 70.304 1.91699C68.1516 1.85827 66.5971 3.15015 66.2085 4.88245C65.8497 6.40922 66.5074 7.99471 68.1815 9.22787L71.1112 11.4006C73.2337 12.9567 74.5192 14.8652 73.8914 17.4489C72.9647 21.1778 69.2876 22.499 66.4775 22.4697Z" fill="#282828"/>
<path d="M55.3578 1.271H58.5267V22.2641H55.3578V1.271Z" fill="#282828"/>
<path d="M45.8514 20.1794C48.4523 20.1794 49.4986 18.594 49.7676 17.6838H52.9066C52.1293 20.5318 49.8573 22.7045 45.9411 22.7045C41.1878 22.7045 38.288 19.4748 38.288 14.777C38.288 9.90309 41.1878 6.84955 45.7916 6.84955C50.7243 6.84955 53.1458 10.2261 53.1458 15.5698H41.427C41.427 18.0948 43.0712 20.1794 45.8514 20.1794ZM45.7916 9.28651C43.2506 9.28651 41.427 10.9601 41.427 13.2796H50.0068C50.0068 10.9601 48.3327 9.28651 45.7916 9.28651Z" fill="#282828"/>
<path d="M29.6486 20.1794C32.2495 20.1794 33.2958 18.594 33.5649 17.6838H36.7038C35.9265 20.5318 33.6546 22.7045 29.7383 22.7045C24.985 22.7045 22.0853 19.4748 22.0853 14.777C22.0853 9.90309 24.985 6.84955 29.5889 6.84955C34.5215 6.84955 36.943 10.2261 36.943 15.5698H25.2242C25.2242 18.0948 26.8684 20.1794 29.6486 20.1794ZM29.5889 9.28651C27.0478 9.28651 25.2242 10.9601 25.2242 13.2796H33.804C33.804 10.9601 32.1299 9.28651 29.5889 9.28651Z" fill="#282828"/>
<path d="M121.028 6.88873C122.061 6.88873 122.959 7.14569 123.597 7.62639C124.241 8.11135 124.608 8.81706 124.576 9.67535C124.527 11.1575 123.383 12.4103 121.734 13.3076C120.117 14.1874 117.971 14.7522 115.734 14.8757C115.518 16.6403 115.747 18.048 116.31 19.0143C116.883 19.999 117.811 20.5416 119.025 20.5416V20.7373L118.906 20.7356C116.411 20.6645 115.057 18.3596 115.557 14.689C120.066 14.4851 124.222 12.4601 124.374 9.7327L124.376 9.66824C124.434 8.13231 123.118 7.14741 121.214 7.08734L121.028 7.08447C116.813 7.08447 112.837 10.872 112.299 15.6873C111.791 19.7684 113.943 22.5284 117.291 22.5284C120.669 22.5284 123.779 19.2693 124.765 14.8064L124.436 14.7183C123.48 18.4765 121.327 20.7373 119.025 20.7373V20.5416C120.105 20.5416 121.169 20.0116 122.087 19.0065C123.005 18.0008 123.77 16.527 124.243 14.6707L124.292 14.4769L125 14.6663L124.96 14.8479C123.964 19.3533 120.805 22.724 117.291 22.724C115.557 22.724 114.121 22.0069 113.188 20.7538C112.258 19.5044 111.842 17.7408 112.101 15.6634C112.649 10.7684 116.694 6.88873 121.028 6.88873ZM120.535 7.55585C121.299 7.58942 121.777 8.13964 121.835 8.99294C121.895 10.9014 120.072 13.955 115.587 14.3954C115.617 14.3366 115.617 14.3073 115.617 14.2779C116.185 10.6078 118.368 7.55425 120.46 7.55425L120.535 7.55585ZM120.46 7.74987C119.512 7.74987 118.495 8.4488 117.63 9.6526C116.793 10.817 116.129 12.4155 115.837 14.1701C120.027 13.6466 121.689 10.7605 121.636 9.00307C121.608 8.59674 121.478 8.28465 121.282 8.07636C121.088 7.87056 120.814 7.74989 120.46 7.74987Z" fill="white" fill-opacity="0.4"/>
<path d="M111.958 0L112.396 0.377143L108.845 16.9606C108.587 18.1502 108.345 19.0557 108.249 19.6871C108.201 20.0046 108.196 20.2184 108.229 20.3491C108.245 20.4104 108.266 20.4391 108.281 20.4531C108.291 20.4622 108.306 20.4724 108.335 20.4787L108.368 20.4835L108.373 20.4841L108.378 20.4846L108.412 20.4865C108.497 20.4854 108.625 20.4417 108.794 20.3036C108.984 20.1491 109.2 19.8957 109.429 19.53C109.886 18.7999 110.373 17.653 110.788 16.0499L110.841 15.8459L111.044 15.9127L111.486 16.057L111.445 16.2305C110.858 18.7138 110.032 20.3785 109.12 21.385C108.204 22.3954 107.188 22.7514 106.25 22.5737C105.801 22.4931 105.452 22.3023 105.202 22.0022C104.955 21.7052 104.819 21.3182 104.76 20.8687C104.643 19.9764 104.823 18.7718 105.136 17.3488L107.946 4.3426L107.947 4.34107C108.14 3.47898 108.098 2.98627 107.915 2.71016C107.742 2.44973 107.395 2.3181 106.766 2.3181H106.567V1.52845L106.753 1.51603C108.504 1.3994 110.02 1.19717 111.832 0.0776078L111.958 0ZM106.766 2.12244C108.052 2.12244 108.53 2.65094 108.141 4.38323L105.331 17.3902C104.703 20.2382 104.644 22.0879 106.288 22.3815C107.992 22.7045 110.085 21.119 111.25 16.1863L110.981 16.0983C110.144 19.328 109.008 20.7667 108.351 20.6786C107.706 20.6235 108.086 19.433 108.555 17.349L108.65 16.9204L112.177 0.448864L111.938 0.243337C110.085 1.38842 108.53 1.59394 106.766 1.71139V2.12244Z" fill="white" fill-opacity="0.4"/>
<path d="M103.244 6.57776L103.754 6.97803L101.545 16.9609C101.288 18.1501 101.046 19.0632 100.95 19.698C100.901 20.0177 100.897 20.2321 100.93 20.3612C100.946 20.4215 100.966 20.4474 100.979 20.4586C100.987 20.4657 101 20.4747 101.028 20.4797L101.06 20.4831L101.07 20.4835L101.08 20.4848C101.154 20.4952 101.288 20.4634 101.482 20.3044C101.671 20.1498 101.889 19.8968 102.119 19.5329C102.58 18.8063 103.074 17.6666 103.489 16.079L103.541 15.8817L104.219 16.0814L104.175 16.2613C103.573 18.7304 102.732 20.3872 101.813 21.393C100.919 22.3701 99.9394 22.7418 99.0407 22.6171L98.9539 22.6036L98.9521 22.6034L98.9506 22.603C98.4937 22.5148 98.1437 22.3179 97.8986 22.0121C97.6565 21.71 97.5316 21.3201 97.4864 20.8704C97.4008 20.0188 97.5957 18.8894 97.912 17.565C97.3094 18.6733 96.6127 19.7107 95.8583 20.5613C94.7114 21.8544 93.3977 22.7534 92.0533 22.7534C90.5512 22.7534 89.5162 21.8894 88.969 20.5804C88.4261 19.2815 88.3553 17.5359 88.7493 15.7054C89.8382 10.7147 93.7531 6.94749 97.9126 6.94745C99.2227 6.94745 100.168 7.39706 100.977 8.07161L103.244 6.57776ZM100.962 8.31755L100.886 8.25225C100.122 7.6056 99.2455 7.17183 98.0348 7.14452L97.9127 7.14311C93.8769 7.14311 90.0204 10.8132 88.9442 15.7459C88.1791 19.3009 89.21 22.4577 91.9229 22.5554L92.0533 22.5576C94.5645 22.5576 97.1055 19.1811 98.6003 15.6871L98.1518 17.4194C97.4643 20.2381 97.3148 22.0878 98.9889 22.4108C100.663 22.7044 102.786 21.1189 103.981 16.2156L103.682 16.1276C102.845 19.3279 101.679 20.7666 101.052 20.6785C100.364 20.6491 100.842 19.2692 101.351 16.9203L103.533 7.05503L103.234 6.82014L100.962 8.31755ZM97.9508 7.64362C99.3633 7.69584 99.8479 9.38741 99.3476 12.0464C98.4508 16.4799 95.4912 20.7959 93.548 20.7959L93.5481 20.6003C93.9632 20.6003 94.467 20.3663 95.0185 19.9035C95.5647 19.4451 96.1331 18.7827 96.6738 17.9761C97.7547 16.3638 98.7082 14.201 99.1516 12.0109C99.4033 10.6728 99.3973 9.60916 99.1652 8.8907C99.0499 8.53384 98.8822 8.27235 98.6732 8.10067C98.4668 7.93115 98.207 7.83803 97.8828 7.83803C97.1587 7.83803 96.207 8.32603 95.2513 9.37661C94.302 10.4201 93.3725 11.9941 92.6917 14.1015C91.979 16.3328 91.8548 17.9838 92.0876 19.0636C92.2037 19.6021 92.406 19.9869 92.6559 20.2348C92.9025 20.4794 93.2045 20.6003 93.5481 20.6003L93.548 20.7959L93.4743 20.7943C91.9362 20.7248 91.0892 18.465 92.5017 14.0429C93.8769 9.7856 96.2685 7.64225 97.8828 7.64225L97.9508 7.64362Z" fill="white" fill-opacity="0.4"/>
<path d="M84.2713 6.94745C85.4449 6.94745 86.3896 7.27401 87.0595 7.82235C87.7094 8.35423 88.0891 9.08572 88.1701 9.89788L88.1769 9.97683L88.1771 9.97816L88.1833 10.1076C88.2023 10.7452 88.0317 11.2441 87.7427 11.6058C87.4353 11.9904 87.0066 12.2039 86.5736 12.2693L86.57 12.2699L86.5665 12.2703C86.0112 12.3344 85.523 12.1987 85.1594 11.913C84.7964 11.6277 84.5711 11.2034 84.5214 10.7152C84.4551 10.1517 84.6784 9.72282 84.8733 9.36954C85.0653 9.0213 85.209 8.77153 85.187 8.49177L85.1804 8.43557L85.18 8.43346C85.1428 8.1774 85.0235 8.00993 84.8567 7.90722C84.684 7.80082 84.4399 7.75181 84.1399 7.77858L84.1349 7.77896L84.1298 7.77915C83.1106 7.81976 81.9933 8.55837 81.0481 9.77937C80.1084 10.993 79.3663 12.6505 79.0872 14.4542L79.087 14.4559C78.7776 16.3367 79.0033 17.8662 79.6022 18.9166C80.1962 19.9584 81.1625 20.5416 82.3879 20.5416V20.7373L82.2668 20.7354C79.78 20.6602 78.3191 18.2601 78.8624 14.6027L78.8902 14.4247C79.4493 10.8119 81.8334 7.76819 84.0179 7.58991L84.1218 7.5836C84.7795 7.52488 85.2877 7.78913 85.3774 8.40571C85.497 9.1691 84.6001 9.69759 84.7197 10.6958C84.8094 11.5767 85.5269 12.1933 86.5433 12.0758C87.3206 11.9584 88.0679 11.3124 87.9782 9.9912C87.8605 8.43048 86.584 7.18273 84.377 7.14414L84.2713 7.14319C79.9963 7.14319 76.11 11.0482 75.5719 15.7459C75.101 19.7055 77.2952 22.4133 80.6146 22.525L80.7736 22.5283C84.0321 22.5283 87.1711 19.4161 88.1576 14.8064L87.8587 14.7477C86.9618 18.6233 84.7197 20.7373 82.3879 20.7373V20.5416C84.5818 20.5416 86.7761 18.5422 87.6642 14.7042L87.7073 14.5184L88.3941 14.6532L88.3526 14.8466C87.3564 19.5019 84.1664 22.7239 80.7736 22.724H80.7719C79.0108 22.7088 77.5316 21.9939 76.5576 20.7542C75.5854 19.5167 75.13 17.7744 75.3739 15.7232C75.9211 10.9491 79.8738 6.94745 84.2713 6.94745Z" fill="white" fill-opacity="0.4"/>
<path d="M63.1151 6.18627C63.921 2.95941 67.2848 1.22151 70.2762 1.25148C72.3234 1.2815 73.4352 1.88487 74.2711 2.26631C74.5821 2.39883 74.9038 2.42853 75.1742 2.31639C75.4389 2.20659 75.6985 1.9425 75.8517 1.39523L75.892 1.25148H76.6477L74.9478 9.25904L74.1483 9.20303L74.1717 9.00022C74.4225 6.82603 74.0874 5.126 73.3768 3.96279C72.6705 2.80659 71.5877 2.16927 70.2986 2.11262C68.2387 2.05643 66.7705 3.28675 66.4031 4.92447L66.4027 4.92638C66.0658 6.36014 66.674 7.87261 68.3011 9.07114L71.2302 11.2436L71.4297 11.3927C72.4142 12.1436 73.2166 12.9846 73.7108 13.9516C74.2403 14.988 74.4098 16.1583 74.0852 17.4942C73.1268 21.3508 69.3294 22.6951 66.4755 22.6653C64.4545 22.6648 63.1547 21.9387 62.3665 21.6233C61.9984 21.4849 61.5893 21.4185 61.2503 21.5033C60.9291 21.5836 60.6448 21.8052 60.5123 22.3126L60.4737 22.4598H59.6598L61.2626 14.1877L62.0602 14.2437L62.0422 14.4419C61.8648 16.4176 62.1043 18.2618 62.8272 19.6072C63.5432 20.9399 64.7348 21.7897 66.5084 21.804C68.6495 21.8036 70.4332 20.6143 70.8567 18.7866C71.2139 17.1944 70.5657 15.561 68.9967 14.3737L68.842 14.2603L65.8821 12.146C64.7448 11.3269 63.9026 10.4372 63.4204 9.44809C62.9361 8.45459 62.8208 7.37279 63.1151 6.18627ZM70.2741 1.44721C67.3444 1.41785 64.0859 3.12079 63.3087 6.23306C62.7407 8.52321 63.7571 10.3729 65.9992 11.9878L68.9588 14.1018C70.6927 15.3349 71.44 17.0966 71.0514 18.8289C70.603 20.7667 68.7196 21.9999 66.5074 21.9999L66.3354 21.9959C62.7597 21.8593 61.4907 18.3554 61.8438 14.4248L61.4253 14.3954L59.9006 22.2641H60.3192L60.3338 22.2113C60.6508 21.12 61.6766 21.153 62.4417 21.442C63.2489 21.765 64.5044 22.4697 66.4775 22.4697C69.2876 22.499 72.9647 21.1778 73.8914 17.4489C74.4996 14.9459 73.3122 13.0766 71.3077 11.5475L71.1112 11.4006L68.1815 9.22787C66.5597 8.03322 65.8919 6.50785 66.1779 5.02559L66.2085 4.88245C66.5971 3.15015 68.1516 1.85827 70.304 1.91699C73.0245 2.03443 74.8779 4.6182 74.3697 9.02235L74.7883 9.05171L76.4026 1.44721H76.0439C75.7253 2.58481 74.9298 2.73067 74.2553 2.4718L74.1904 2.44549C73.3533 2.0638 72.2771 1.47658 70.2741 1.44721Z" fill="white" fill-opacity="0.4"/>
<path d="M55.3578 1.271V22.2641H58.5267V1.271H55.3578ZM58.726 22.4598H55.1584V1.07526H58.726V22.4598Z" fill="white" fill-opacity="0.4"/>
<path d="M38.0887 14.777C38.0887 12.3024 38.8254 10.2689 40.1676 8.85225C41.5112 7.43403 43.443 6.65382 45.7916 6.65381C48.3085 6.65381 50.2088 7.51792 51.4745 9.08412C52.7344 10.6432 53.3451 12.8726 53.3451 15.5697V15.7655H41.63C41.6702 16.9091 42.0627 17.938 42.7454 18.6912C43.4646 19.4846 44.5158 19.9836 45.8515 19.9836L45.8514 20.1794L45.7219 20.1778C43.0202 20.1141 41.427 18.0553 41.427 15.5698H53.1458C53.1458 10.3096 50.7994 6.95556 46.021 6.85203L45.7916 6.84955C41.1878 6.84955 38.288 9.90309 38.288 14.777L38.2902 14.9961C38.3791 19.5749 41.2621 22.7045 45.9411 22.7045C49.8573 22.7045 52.1293 20.5318 52.9066 17.6838H49.7676C49.4986 18.594 48.4523 20.1794 45.8514 20.1794L45.8515 19.9836C48.3466 19.9836 49.3269 18.4729 49.5763 17.6292L49.6179 17.4879H53.1664L53.0991 17.7345C52.7011 19.1926 51.918 20.4864 50.7248 21.4155C49.5305 22.3455 47.9382 22.9002 45.941 22.9002C43.5163 22.9002 41.5475 22.0751 40.1861 20.6356C38.8262 19.1979 38.0887 17.1651 38.0887 14.777ZM45.9101 9.28769C48.3846 9.33892 50.0068 10.9964 50.0068 13.2796H41.427C41.427 10.9601 43.2506 9.28651 45.7916 9.28651L45.9101 9.28769ZM45.7916 9.48229C43.4204 9.48232 41.7301 10.9866 41.631 13.0838H49.8032C49.759 12.0564 49.3659 11.1817 48.7127 10.5531C48.0183 9.88492 47.0165 9.48229 45.7916 9.48229Z" fill="white" fill-opacity="0.4"/>
<path d="M21.886 14.777C21.886 12.3024 22.6227 10.2689 23.9648 8.85225C25.3085 7.43403 27.2402 6.65382 29.5888 6.65381C32.1057 6.65381 34.006 7.51792 35.2717 9.08412C36.5316 10.6432 37.1423 12.8726 37.1423 15.5697V15.7655H25.4273C25.4675 16.9091 25.8599 17.938 26.5427 18.6912C27.2619 19.4846 28.3131 19.9836 29.6487 19.9836L29.6486 20.1794L29.5191 20.1778C26.8174 20.1141 25.2242 18.0553 25.2242 15.5698H36.943C36.9429 10.3096 34.5966 6.95556 29.8183 6.85203L29.5889 6.84955C24.985 6.84955 22.0853 9.90309 22.0853 14.777L22.0875 14.9961C22.1764 19.5749 25.0593 22.7045 29.7383 22.7045C33.6546 22.7045 35.9265 20.5318 36.7038 17.6838H33.5649C33.2958 18.594 32.2495 20.1794 29.6486 20.1794L29.6487 19.9836C32.1439 19.9836 33.1241 18.4729 33.3735 17.6292L33.4151 17.4879H36.9636L36.8963 17.7345C36.4983 19.1926 35.7152 20.4864 34.522 21.4155C33.3277 22.3455 31.7354 22.9002 29.7383 22.9002C27.3135 22.9002 25.3448 22.0751 23.9833 20.6356C22.6235 19.1979 21.886 17.1651 21.886 14.777ZM29.7073 9.28769C32.1818 9.33892 33.804 10.9964 33.804 13.2796H25.2242C25.2242 10.9601 27.0478 9.28651 29.5889 9.28651L29.7073 9.28769ZM29.5888 9.48229C27.2176 9.48232 25.5273 10.9866 25.4283 13.0838H33.6004C33.5562 12.0564 33.1632 11.1817 32.5099 10.5531C31.8155 9.88492 30.8138 9.48229 29.5888 9.48229Z" fill="white" fill-opacity="0.4"/>
</g>
<defs>
<clipPath id="clip0_96_566">
<rect width="125" height="24" fill="white"/>
</clipPath>
</defs>
</svg>
