<svg xmlns="http://www.w3.org/2000/svg" width="20" height="20" viewBox="0 0 20 20" fill="none">
  <path d="M14.5581 4.55806C14.8021 4.31398 15.1978 4.31398 15.4418 4.55806C15.6859 4.80214 15.6859 5.19777 15.4418 5.44185L5.44185 15.4418C5.19777 15.6859 4.80214 15.6859 4.55806 15.4418C4.31398 15.1978 4.31398 14.8021 4.55806 14.5581L14.5581 4.55806Z" fill="#E6E5DD"/>
  <path d="M4.55806 4.55806C4.80214 4.31398 5.19777 4.31398 5.44185 4.55806L15.4418 14.5581C15.6859 14.8021 15.6859 15.1978 15.4418 15.4418C15.1978 15.6859 14.8021 15.6859 14.5581 15.4418L4.55806 5.44185C4.31398 5.19777 4.31398 4.80214 4.55806 4.55806Z" fill="#E6E5DD"/>
</svg>