<svg xmlns="http://www.w3.org/2000/svg" width="20" height="20" viewBox="0 0 20 20" fill="none">
  <path d="M17.5 4.37484C17.8452 4.37484 18.125 4.65466 18.125 4.99984C18.125 5.34502 17.8452 5.62484 17.5 5.62484H2.5C2.15482 5.62484 1.875 5.34502 1.875 4.99984C1.875 4.65466 2.15482 4.37484 2.5 4.37484H17.5Z" fill="#E6E5DD"/>
  <path d="M3.54167 16.6665V4.99984C3.54167 4.65466 3.82149 4.37484 4.16667 4.37484C4.51184 4.37484 4.79167 4.65466 4.79167 4.99984V16.6665C4.79167 16.8799 4.90461 17.1457 5.12939 17.3704C5.35418 17.5952 5.61994 17.7082 5.83333 17.7082H14.1667C14.3801 17.7082 14.6458 17.5952 14.8706 17.3704C15.0954 17.1457 15.2083 16.8799 15.2083 16.6665V4.99984C15.2083 4.65466 15.4882 4.37484 15.8333 4.37484C16.1785 4.37484 16.4583 4.65466 16.4583 4.99984V16.6665C16.4583 17.2864 16.1546 17.854 15.7544 18.2542C15.3542 18.6544 14.7866 18.9582 14.1667 18.9582H5.83333C5.2134 18.9582 4.64582 18.6544 4.24561 18.2542C3.84539 17.854 3.54167 17.2864 3.54167 16.6665Z" fill="#E6E5DD"/>
  <path d="M12.7083 4.99984V3.33317C12.7083 3.11977 12.5954 2.85402 12.3706 2.62923C12.1458 2.40445 11.8801 2.2915 11.6667 2.2915H8.33333C8.11994 2.2915 7.85418 2.40445 7.62939 2.62923C7.40461 2.85402 7.29167 3.11977 7.29167 3.33317V4.99984C7.29167 5.34502 7.01184 5.62484 6.66667 5.62484C6.32149 5.62484 6.04167 5.34502 6.04167 4.99984V3.33317C6.04167 2.71323 6.34539 2.14566 6.74561 1.74544C7.14582 1.34523 7.7134 1.0415 8.33333 1.0415H11.6667C12.2866 1.0415 12.8542 1.34523 13.2544 1.74544C13.6546 2.14566 13.9583 2.71323 13.9583 3.33317V4.99984C13.9583 5.34502 13.6785 5.62484 13.3333 5.62484C12.9882 5.62484 12.7083 5.34502 12.7083 4.99984Z" fill="#E6E5DD"/>
  <path d="M7.70833 14.1665V9.1665C7.70833 8.82133 7.98816 8.5415 8.33333 8.5415C8.67851 8.5415 8.95833 8.82133 8.95833 9.1665V14.1665C8.95833 14.5117 8.67851 14.7915 8.33333 14.7915C7.98816 14.7915 7.70833 14.5117 7.70833 14.1665Z" fill="#E6E5DD"/>
  <path d="M11.0417 14.1665V9.1665C11.0417 8.82133 11.3215 8.5415 11.6667 8.5415C12.0118 8.5415 12.2917 8.82133 12.2917 9.1665V14.1665C12.2917 14.5117 12.0118 14.7915 11.6667 14.7915C11.3215 14.7915 11.0417 14.5117 11.0417 14.1665Z" fill="#E6E5DD"/>
</svg>