<svg xmlns="http://www.w3.org/2000/svg" width="20" height="20" viewBox="0 0 20 20" fill="none">
  <path d="M17.5002 16.0414C17.8454 16.0414 18.1252 16.3213 18.1252 16.6664C18.1252 17.0116 17.8454 17.2914 17.5002 17.2914H10.0002C9.65502 17.2914 9.3752 17.0116 9.3752 16.6664C9.3752 16.3213 9.65502 16.0414 10.0002 16.0414H17.5002Z" fill="#E6E5DD"/>
  <path d="M16.0419 4.26921C16.0419 3.96587 15.9211 3.67481 15.7066 3.46029C15.4921 3.24575 15.2011 3.125 14.8977 3.125C14.5943 3.12501 14.3033 3.24576 14.0888 3.46029L4.07981 13.4692C3.95598 13.593 3.86521 13.7463 3.81613 13.9144L3.22369 15.9424L5.25249 15.3507C5.42063 15.3017 5.57462 15.2109 5.69846 15.0871L15.7066 5.07812C15.9211 4.86365 16.0418 4.57251 16.0419 4.26921ZM17.2919 4.26921C17.2918 4.90403 17.0393 5.51302 16.5904 5.96191L6.58225 15.9709C6.30967 16.2434 5.97252 16.4425 5.60243 16.5503L3.20904 17.2485C3.02989 17.3007 2.83966 17.3046 2.65891 17.2583C2.47814 17.212 2.31319 17.1176 2.18121 16.9857C2.04916 16.8536 1.95493 16.6881 1.90858 16.5072C1.86232 16.3264 1.86528 16.1362 1.91753 15.957L2.61578 13.5636C2.72373 13.1939 2.92362 12.8577 3.19602 12.5854L13.205 2.5765C13.6539 2.12755 14.2628 1.87501 14.8977 1.875C15.5326 1.875 16.1414 2.12755 16.5904 2.5765C17.0393 3.02544 17.2919 3.63435 17.2919 4.26921Z" fill="#E6E5DD"/>
  <path d="M12.0583 3.72455C12.3024 3.48047 12.698 3.48047 12.9421 3.72455L15.4421 6.22455C15.6862 6.46863 15.6862 6.86426 15.4421 7.10834C15.198 7.35242 14.8024 7.35242 14.5583 7.10834L12.0583 4.60834C11.8142 4.36426 11.8142 3.96863 12.0583 3.72455Z" fill="#E6E5DD"/>
</svg>