<svg xmlns="http://www.w3.org/2000/svg" width="20" height="20" viewBox="0 0 20 20" fill="none">
  <path d="M11.7625 11.6814C12.0994 11.6066 12.4338 11.8191 12.5088 12.1559L13.1102 14.8642C13.1851 15.2012 12.9727 15.5356 12.6358 15.6105C12.2989 15.6853 11.9653 15.4727 11.8903 15.136L11.2881 12.4277C11.2133 12.0908 11.4258 11.7564 11.7625 11.6814Z" fill="#E6E5DD"/>
  <path d="M17.7467 6.45275C17.865 6.12851 18.2232 5.96175 18.5475 6.08003C18.8717 6.19835 19.0385 6.55657 18.9202 6.88081C18.2527 8.71011 17.0392 10.2901 15.4436 11.4064C13.848 12.5227 11.9475 13.1219 10.0001 13.1219C8.05273 13.1219 6.15226 12.5227 4.55659 11.4064C2.96104 10.2901 1.74756 8.71011 1.08003 6.88081C0.961752 6.55657 1.12851 6.19835 1.45275 6.08003C1.77699 5.96175 2.13521 6.12851 2.25353 6.45275C2.83323 8.04129 3.88795 9.41325 5.27355 10.3826C6.65912 11.3518 8.30918 11.8719 10.0001 11.8719C11.691 11.8719 13.3411 11.3518 14.7267 10.3826C16.1123 9.41325 17.167 8.04129 17.7467 6.45275Z" fill="#E6E5DD"/>
  <path d="M14.8256 10.3141C15.0895 10.0919 15.4838 10.1252 15.7061 10.3889L17.1449 12.0979C17.367 12.362 17.3332 12.7562 17.0693 12.9785C16.8053 13.2006 16.411 13.1667 16.1887 12.9028L14.7507 11.1946C14.5285 10.9307 14.5619 10.5365 14.8256 10.3141Z" fill="#E6E5DD"/>
  <path d="M4.29373 10.3889C4.51608 10.1251 4.91028 10.0918 5.17427 10.3141C5.43816 10.5364 5.47222 10.9306 5.24995 11.1946L3.81115 12.9028C3.58879 13.1666 3.19457 13.2007 2.93061 12.9785C2.66661 12.7561 2.63345 12.362 2.85574 12.0979L4.29373 10.3889Z" fill="#E6E5DD"/>
  <path d="M7.49198 12.1559C7.56701 11.8192 7.90059 11.6066 8.23742 11.6814C8.57436 11.7563 8.78672 12.0907 8.71186 12.4277L8.11046 15.136C8.03548 15.4728 7.70107 15.6853 7.36421 15.6105C7.02742 15.5355 6.81493 15.2011 6.88976 14.8642L7.49198 12.1559Z" fill="#E6E5DD"/>
</svg>