<svg xmlns="http://www.w3.org/2000/svg" width="20" height="20" viewBox="0 0 20 20" fill="none">
  <path d="M12.7087 9.99984C12.7087 8.50407 11.4961 7.2915 10.0003 7.2915C8.50455 7.2915 7.29199 8.50407 7.29199 9.99984C7.29199 11.4956 8.50455 12.7082 10.0003 12.7082C11.4961 12.7082 12.7087 11.4956 12.7087 9.99984ZM13.9587 9.99984C13.9587 12.186 12.1865 13.9582 10.0003 13.9582C7.8142 13.9582 6.04199 12.186 6.04199 9.99984C6.04199 7.81371 7.8142 6.0415 10.0003 6.0415C12.1865 6.0415 13.9587 7.81371 13.9587 9.99984Z" fill="#E6E5DD"/>
  <path d="M9.37533 3.33317V1.6665C9.37533 1.32133 9.65515 1.0415 10.0003 1.0415C10.3455 1.0415 10.6253 1.32133 10.6253 1.6665V3.33317C10.6253 3.67835 10.3455 3.95817 10.0003 3.95817C9.65515 3.95817 9.37533 3.67835 9.37533 3.33317Z" fill="#E6E5DD"/>
  <path d="M9.37533 18.3332V16.6665C9.37533 16.3213 9.65515 16.0415 10.0003 16.0415C10.3455 16.0415 10.6253 16.3213 10.6253 16.6665V18.3332C10.6253 18.6783 10.3455 18.9582 10.0003 18.9582C9.65515 18.9582 9.37533 18.6783 9.37533 18.3332Z" fill="#E6E5DD"/>
  <path d="M3.66676 3.66628C3.91084 3.4222 4.30648 3.4222 4.55055 3.66628L5.72568 4.84141C5.96963 5.08549 5.96972 5.48116 5.72568 5.7252C5.48165 5.96923 5.08598 5.96914 4.84189 5.7252L3.66676 4.55006C3.42269 4.30599 3.42269 3.91035 3.66676 3.66628Z" fill="#E6E5DD"/>
  <path d="M14.2751 14.2746C14.5192 14.0305 14.9148 14.0305 15.1589 14.2746L16.334 15.4497C16.578 15.6938 16.5781 16.0895 16.334 16.3335C16.09 16.5776 15.6943 16.5775 15.4502 16.3335L14.2751 15.1584C14.031 14.9143 14.031 14.5187 14.2751 14.2746Z" fill="#E6E5DD"/>
  <path d="M3.33366 9.37484C3.67884 9.37484 3.95866 9.65466 3.95866 9.99984C3.95866 10.345 3.67884 10.6248 3.33366 10.6248H1.66699C1.32181 10.6248 1.04199 10.345 1.04199 9.99984C1.04199 9.65466 1.32181 9.37484 1.66699 9.37484H3.33366Z" fill="#E6E5DD"/>
  <path d="M18.3337 9.37484C18.6788 9.37484 18.9587 9.65466 18.9587 9.99984C18.9587 10.345 18.6788 10.6248 18.3337 10.6248H16.667C16.3218 10.6248 16.042 10.345 16.042 9.99984C16.042 9.65466 16.3218 9.37484 16.667 9.37484H18.3337Z" fill="#E6E5DD"/>
  <path d="M4.84189 14.2746C5.08598 14.0306 5.48163 14.0306 5.72568 14.2746C5.96967 14.5187 5.96967 14.9143 5.72568 15.1584L4.55055 16.3335C4.30649 16.5775 3.91083 16.5775 3.66676 16.3335C3.42271 16.0895 3.42275 15.6938 3.66676 15.4497L4.84189 14.2746Z" fill="#E6E5DD"/>
  <path d="M15.4502 3.66628C15.6943 3.42226 16.09 3.42222 16.334 3.66628C16.578 3.91034 16.578 4.306 16.334 4.55006L15.1589 5.7252C14.9148 5.96919 14.5192 5.96919 14.2751 5.7252C14.031 5.48114 14.0311 5.08549 14.2751 4.84141L15.4502 3.66628Z" fill="#E6E5DD"/>
</svg>