<svg xmlns="http://www.w3.org/2000/svg" width="20" height="20" viewBox="0 0 20 20" fill="none">
  <path d="M12.7087 17.5V15.8333C12.7087 15.115 12.4231 14.4264 11.9152 13.9185C11.4073 13.4105 10.7186 13.125 10.0003 13.125H5.00033C4.28203 13.125 3.59336 13.4105 3.08545 13.9185C2.57754 14.4264 2.29199 15.115 2.29199 15.8333V17.5C2.29199 17.8452 2.01217 18.125 1.66699 18.125C1.32181 18.125 1.04199 17.8452 1.04199 17.5V15.8333C1.04199 14.7835 1.45933 13.777 2.20166 13.0347C2.94399 12.2923 3.95051 11.875 5.00033 11.875H10.0003C11.0501 11.875 12.0567 12.2923 12.799 13.0347C13.5413 13.777 13.9587 14.7835 13.9587 15.8333V17.5C13.9587 17.8452 13.6788 18.125 13.3337 18.125C12.9885 18.125 12.7087 17.8452 12.7087 17.5Z" fill="#E6E5DD"/>
  <path d="M15.2054 5.83339C15.2054 5.23342 15.0062 4.65018 14.639 4.17568C14.2718 3.70127 13.7573 3.36187 13.1766 3.21132C12.8426 3.12458 12.6424 2.78364 12.729 2.4496C12.8157 2.11564 13.1567 1.91541 13.4907 2.00201C14.3394 2.22209 15.0912 2.71733 15.6278 3.4107C16.1644 4.1042 16.4554 4.95651 16.4554 5.83339C16.4554 6.71025 16.1644 7.5626 15.6278 8.25608C15.0912 8.94943 14.3394 9.4447 13.4907 9.66477C13.1567 9.75136 12.8158 9.55107 12.729 9.21718C12.6424 8.88309 12.8425 8.54132 13.1766 8.45465C13.7573 8.30411 14.2718 7.96548 14.639 7.49111C15.0062 7.01662 15.2054 6.43334 15.2054 5.83339Z" fill="#E6E5DD"/>
  <path d="M17.7087 17.5001V15.8334C17.7081 15.2335 17.5082 14.6507 17.1406 14.1765C16.773 13.7023 16.2584 13.3638 15.6774 13.2138C15.3432 13.1275 15.1419 12.7863 15.2282 12.4521C15.3145 12.1179 15.6557 11.9166 15.9899 12.0029C16.8391 12.2221 17.5912 12.7176 18.1286 13.4107C18.6659 14.1038 18.9579 14.9557 18.9587 15.8326V17.5001C18.9586 17.8452 18.6788 18.1251 18.3337 18.1251C17.9885 18.1251 17.7087 17.8452 17.7087 17.5001Z" fill="#E6E5DD"/>
  <path d="M10.2087 5.83333C10.2087 4.33756 8.9961 3.125 7.50033 3.125C6.00455 3.125 4.79199 4.33756 4.79199 5.83333C4.79199 7.32911 6.00455 8.54167 7.50033 8.54167C8.9961 8.54167 10.2087 7.32911 10.2087 5.83333ZM11.4587 5.83333C11.4587 8.01946 9.68645 9.79167 7.50033 9.79167C5.3142 9.79167 3.54199 8.01946 3.54199 5.83333C3.54199 3.64721 5.3142 1.875 7.50033 1.875C9.68645 1.875 11.4587 3.64721 11.4587 5.83333Z" fill="#E6E5DD"/>
</svg>