<svg xmlns="http://www.w3.org/2000/svg" width="20" height="20" viewBox="0 0 20 20" fill="none">
  <path d="M7.70833 3.33333C7.70833 3.21827 7.61506 3.125 7.5 3.125H3.33333C3.21827 3.125 3.125 3.21827 3.125 3.33333V9.16667C3.125 9.28173 3.21827 9.375 3.33333 9.375H7.5C7.61506 9.375 7.70833 9.28173 7.70833 9.16667V3.33333ZM8.95833 9.16667C8.95833 9.97208 8.30542 10.625 7.5 10.625H3.33333C2.52792 10.625 1.875 9.97208 1.875 9.16667V3.33333C1.875 2.52792 2.52792 1.875 3.33333 1.875H7.5C8.30542 1.875 8.95833 2.52792 8.95833 3.33333V9.16667Z" fill="#E6E5DD"/>
  <path d="M16.875 3.33333C16.875 3.21827 16.7817 3.125 16.6667 3.125H12.5C12.3849 3.125 12.2917 3.21827 12.2917 3.33333V5.83333C12.2917 5.94839 12.3849 6.04167 12.5 6.04167H16.6667C16.7817 6.04167 16.875 5.94839 16.875 5.83333V3.33333ZM18.125 5.83333C18.125 6.63875 17.4721 7.29167 16.6667 7.29167H12.5C11.6946 7.29167 11.0417 6.63875 11.0417 5.83333V3.33333C11.0417 2.52792 11.6946 1.875 12.5 1.875H16.6667C17.4721 1.875 18.125 2.52792 18.125 3.33333V5.83333Z" fill="#E6E5DD"/>
  <path d="M16.875 10.8333C16.875 10.7183 16.7817 10.625 16.6667 10.625H12.5C12.3849 10.625 12.2917 10.7183 12.2917 10.8333V16.6667C12.2917 16.7817 12.3849 16.875 12.5 16.875H16.6667C16.7817 16.875 16.875 16.7817 16.875 16.6667V10.8333ZM18.125 16.6667C18.125 17.4721 17.4721 18.125 16.6667 18.125H12.5C11.6946 18.125 11.0417 17.4721 11.0417 16.6667V10.8333C11.0417 10.0279 11.6946 9.375 12.5 9.375H16.6667C17.4721 9.375 18.125 10.0279 18.125 10.8333V16.6667Z" fill="#E6E5DD"/>
  <path d="M7.70833 14.1667C7.70833 14.0516 7.61506 13.9583 7.5 13.9583H3.33333C3.21827 13.9583 3.125 14.0516 3.125 14.1667V16.6667C3.125 16.7817 3.21827 16.875 3.33333 16.875H7.5C7.61506 16.875 7.70833 16.7817 7.70833 16.6667V14.1667ZM8.95833 16.6667C8.95833 17.4721 8.30542 18.125 7.5 18.125H3.33333C2.52792 18.125 1.875 17.4721 1.875 16.6667V14.1667C1.875 13.3613 2.52792 12.7083 3.33333 12.7083H7.5C8.30542 12.7083 8.95833 13.3613 8.95833 14.1667V16.6667Z" fill="#E6E5DD"/>
</svg>