<svg xmlns="http://www.w3.org/2000/svg" width="20" height="20" viewBox="0 0 20 20" fill="none">
  <path d="M14.1667 2.5H5.83333C4.94928 2.5 4.10143 2.85119 3.47631 3.47631C2.85119 4.10143 2.5 4.94928 2.5 5.83333V14.1667C2.5 15.0507 2.85119 15.8986 3.47631 16.5237C4.10143 17.1488 4.94928 17.5 5.83333 17.5H14.1667C15.0507 17.5 15.8986 17.1488 16.5237 16.5237C17.1488 15.8986 17.5 15.0507 17.5 14.1667V5.83333C17.5 4.94928 17.1488 4.10143 16.5237 3.47631C15.8986 2.85119 15.0507 2.5 14.1667 2.5Z" stroke="#E6E5DD" stroke-width="1.4" stroke-linejoin="round"/>
  <path d="M10.0003 13.3332C10.8844 13.3332 11.7322 12.982 12.3573 12.3569C12.9825 11.7317 13.3337 10.8839 13.3337 9.99984C13.3337 9.11578 12.9825 8.26794 12.3573 7.64281C11.7322 7.01769 10.8844 6.6665 10.0003 6.6665C9.11627 6.6665 8.26842 7.01769 7.6433 7.64281C7.01818 8.26794 6.66699 9.11578 6.66699 9.99984C6.66699 10.8839 7.01818 11.7317 7.6433 12.3569C8.26842 12.982 9.11627 13.3332 10.0003 13.3332Z" stroke="#E6E5DD" stroke-width="1.4" stroke-linejoin="round"/>
  <path d="M14.5833 6.25016C14.8043 6.25016 15.0163 6.16237 15.1726 6.00608C15.3289 5.8498 15.4167 5.63784 15.4167 5.41683C15.4167 5.19582 15.3289 4.98385 15.1726 4.82757C15.0163 4.67129 14.8043 4.5835 14.5833 4.5835C14.3623 4.5835 14.1504 4.67129 13.9941 4.82757C13.8378 4.98385 13.75 5.19582 13.75 5.41683C13.75 5.63784 13.8378 5.8498 13.9941 6.00608C14.1504 6.16237 14.3623 6.25016 14.5833 6.25016Z" fill="#E6E5DD"/>
</svg>