<svg xmlns="http://www.w3.org/2000/svg" width="20" height="20" viewBox="0 0 20 20" fill="none">
  <path d="M1.38412 9.92178C1.3837 11.4391 1.78195 12.9207 2.53921 14.2266L1.3117 18.6885L5.89832 17.4912C7.16693 18.1788 8.5883 18.539 10.0327 18.5391H10.0365C14.8047 18.5391 18.6862 14.6764 18.6882 9.92857C18.6891 7.62791 17.79 5.46453 16.1564 3.83691C14.523 2.20944 12.3507 1.31268 10.0361 1.31163C5.26734 1.31163 1.38609 5.17417 1.38412 9.92178Z" fill="url(#paint0_linear_1221_22566)"/>
  <path d="M1.07523 9.91898C1.07474 11.4909 1.48727 13.0255 2.27153 14.3782L1 19L5.75109 17.7598C7.06016 18.4704 8.53405 18.845 10.0338 18.8456H10.0377C14.977 18.8456 18.9979 14.8439 19 9.92612C19.0008 7.54279 18.0693 5.30164 16.3773 3.61572C14.6851 1.93001 12.4351 1.00098 10.0377 1C5.09753 1 1.0772 5.00114 1.07523 9.91898ZM3.90468 14.1452L3.72728 13.8649C2.98155 12.6844 2.58794 11.3203 2.5885 9.91954C2.59005 5.83195 5.93158 2.50638 10.0405 2.50638C12.0303 2.50722 13.9004 3.27944 15.3069 4.68054C16.7134 6.08178 17.4873 7.94445 17.4868 9.92556C17.485 14.0131 14.1434 17.3391 10.0377 17.3391H10.0347C8.69788 17.3384 7.38677 16.981 6.24334 16.3056L5.97123 16.145L3.15184 16.8809L3.90468 14.1452Z" fill="url(#paint1_linear_1221_22566)"/>
  <path d="M7.79767 6.19028C7.62991 5.81907 7.45335 5.81158 7.29381 5.80507C7.16317 5.79947 7.01383 5.79989 6.86462 5.79989C6.71528 5.79989 6.47263 5.85582 6.26753 6.07877C6.06222 6.30192 5.48369 6.8412 5.48369 7.93801C5.48369 9.03482 6.28616 10.0949 6.39803 10.2438C6.51004 10.3924 7.94723 12.7152 10.2234 13.6088C12.1151 14.3514 12.5 14.2037 12.9106 14.1665C13.3212 14.1294 14.2356 13.6274 14.4221 13.1068C14.6088 12.5863 14.6088 12.1401 14.5528 12.0469C14.4968 11.954 14.3475 11.8982 14.1235 11.7868C13.8996 11.6753 12.7986 11.1359 12.5933 11.0615C12.388 10.9872 12.2387 10.9501 12.0894 11.1733C11.9401 11.3962 11.5112 11.8982 11.3805 12.0469C11.2499 12.1959 11.1192 12.2144 10.8954 12.1029C10.6713 11.9911 9.95008 11.756 9.09444 10.9965C8.42873 10.4056 7.97929 9.67587 7.84865 9.45264C7.71801 9.22977 7.83466 9.10895 7.94695 8.99786C8.04756 8.89797 8.17096 8.73754 8.28304 8.60741C8.39469 8.47721 8.43196 8.38432 8.50663 8.23564C8.58137 8.08683 8.54397 7.95663 8.48807 7.84512C8.43196 7.73361 7.9968 6.63106 7.79767 6.19028Z" fill="white"/>
  <defs>
    <linearGradient id="paint0_linear_1221_22566" x1="1" y1="10" x2="19" y2="10" gradientUnits="userSpaceOnUse">
      <stop stop-color="#1FAF38"/>
      <stop offset="1" stop-color="#60D669"/>
    </linearGradient>
    <linearGradient id="paint1_linear_1221_22566" x1="1" y1="10" x2="19" y2="10" gradientUnits="userSpaceOnUse">
      <stop stop-color="#F9F9F9"/>
      <stop offset="1" stop-color="white"/>
    </linearGradient>
  </defs>
</svg>