<svg width="179" height="56" viewBox="0 0 179 56" fill="none" xmlns="http://www.w3.org/2000/svg">
<path d="M39.2918 17.31C39.3594 17.3106 39.4269 17.311 39.4944 17.3112C39.6719 17.3124 39.8493 17.3164 40.0267 17.3209C40.1696 17.324 40.3124 17.3251 40.4553 17.3262C40.6285 17.3275 40.8016 17.3297 40.9748 17.3322C41.0067 17.3326 41.0387 17.333 41.0716 17.3335C42.1958 17.3512 43.3465 17.5355 44.3448 18.0668C44.4077 18.1001 44.4711 18.1323 44.5347 18.1642C45.0728 18.437 45.5554 18.7817 45.998 19.187C46.0681 19.2507 46.1396 19.3116 46.2127 19.372C47.4685 20.4548 48.4104 22.3513 48.5211 23.9829C48.6056 25.451 48.4492 26.8322 47.785 28.1659C47.7715 28.193 47.758 28.2202 47.7441 28.2482C47.5469 28.6409 47.3292 29.0081 47.0634 29.3596C47.0492 29.3786 47.0351 29.3976 47.0205 29.4171C46.4016 30.239 45.6226 30.9372 44.7107 31.4308C44.6069 31.4872 44.506 31.5472 44.4047 31.608C44.2387 31.7036 44.0707 31.774 43.89 31.8383C43.8226 31.8623 43.7557 31.8878 43.6896 31.9151C42.8904 32.2436 41.9878 32.3781 41.127 32.3924C41.2611 32.5475 41.3971 32.6942 41.5513 32.83C41.5885 32.8632 41.6257 32.8965 41.6628 32.9298C41.6919 32.9559 41.6919 32.9559 41.7217 32.9825C41.8312 33.0812 41.9392 33.1815 42.0474 33.2817C42.2313 33.4516 42.4163 33.6202 42.6027 33.7876C42.6749 33.8526 42.7467 33.918 42.8184 33.9837C42.8385 34.0021 42.8586 34.0205 42.8792 34.0394C42.9176 34.0746 42.9559 34.1098 42.9942 34.1451C43.0912 34.2341 43.1895 34.3213 43.2896 34.4069C43.4218 34.5201 43.5497 34.6373 43.677 34.7557C43.8652 34.93 44.0544 35.1029 44.2452 35.2743C44.3486 35.3673 44.4515 35.4607 44.5544 35.5543C44.7561 35.7376 44.9586 35.9203 45.1612 36.1027C45.2261 36.1612 45.291 36.2197 45.3559 36.2782C45.3719 36.2926 45.388 36.3071 45.4046 36.322C45.4916 36.4005 45.5784 36.4792 45.665 36.5581C45.8842 36.7585 45.8842 36.7585 46.1082 36.9537C46.2596 37.0825 46.4046 37.218 46.5506 37.3526C46.6932 37.4839 46.8372 37.6135 46.9828 37.7415C47.0759 37.8238 47.1681 37.9069 47.2602 37.9902C47.5757 38.2786 47.5757 38.2786 47.9039 38.5528C47.9296 38.5747 47.9553 38.5967 47.9818 38.6193C47.9818 38.6406 47.9818 38.6619 47.9818 38.6838C47.4486 38.6914 46.9155 38.6971 46.3823 38.7006C46.1347 38.7022 45.8872 38.7045 45.6396 38.7082C45.4237 38.7114 45.2078 38.7135 44.9919 38.7142C44.8776 38.7146 44.7635 38.7156 44.6492 38.718C44.5214 38.7206 44.3937 38.7206 44.2658 38.7205C44.2284 38.7216 44.1909 38.7228 44.1523 38.724C43.9313 38.7212 43.825 38.6821 43.6668 38.5268C43.6179 38.4719 43.5694 38.4167 43.5213 38.3612C43.4817 38.3254 43.4416 38.2902 43.4003 38.2563C43.269 38.1457 43.1431 38.0299 43.017 37.9135C42.8815 37.7886 42.7458 37.664 42.607 37.5425C42.4327 37.3893 42.2632 37.2312 42.0932 37.0734C41.8819 36.8773 41.6688 36.6832 41.455 36.4899C41.1934 36.2534 40.9337 36.0152 40.6753 35.7754C40.5425 35.6523 40.409 35.53 40.2743 35.4091C40.111 35.2625 39.9495 35.1143 39.7884 34.9654C39.7653 34.9441 39.7421 34.9227 39.7183 34.9007C39.6121 34.8024 39.5071 34.7032 39.4047 34.601C39.3054 34.5025 39.2011 34.4115 39.0944 34.3209C38.9827 34.2248 38.8753 34.1242 38.7676 34.0237C38.7185 33.9781 38.6694 33.9325 38.6203 33.8869C38.5954 33.8638 38.5706 33.8407 38.545 33.8168C38.4266 33.7068 38.3081 33.5971 38.1895 33.4874C38.1666 33.4661 38.1436 33.4448 38.1199 33.4229C37.6213 32.9612 37.6213 32.9612 37.1192 32.503C37.0267 32.4192 36.9344 32.3352 36.8424 32.2509C36.8122 32.2232 36.8122 32.2232 36.7814 32.195C36.7433 32.16 36.7052 32.125 36.6671 32.09C36.571 32.0019 36.4736 31.9156 36.3744 31.8308C36.2367 31.7129 36.1039 31.5904 35.9716 31.4669C35.6826 31.1983 35.3925 30.9311 35.0963 30.6703C34.9516 30.5426 34.8084 30.4132 34.6658 30.2832C34.6441 30.2636 34.6225 30.244 34.6002 30.2238C34.5799 30.2052 34.5596 30.1866 34.5387 30.1675C34.5205 30.1509 34.5023 30.1343 34.4836 30.1173C34.4362 30.0694 34.4362 30.0694 34.3706 29.9726C34.4034 29.9726 34.4362 29.9725 34.47 29.9724C35.2711 29.9705 36.0722 29.968 36.8734 29.965C37.2608 29.9636 37.6482 29.9623 38.0356 29.9615C38.3736 29.9607 38.7116 29.9596 39.0496 29.9582C39.2283 29.9574 39.407 29.9568 39.5857 29.9566C39.7545 29.9564 39.9232 29.9557 40.092 29.9548C40.1534 29.9545 40.2148 29.9544 40.2761 29.9544C41.5558 29.9552 42.7951 29.6023 43.7836 28.7789C43.8013 28.7643 43.8189 28.7497 43.837 28.7347C44.3134 28.3351 44.6543 27.8585 44.9644 27.327C44.9786 27.3029 44.9929 27.2788 45.0075 27.2539C45.0961 27.1014 45.17 26.9496 45.2308 26.7846C45.2391 26.7625 45.2474 26.7404 45.256 26.7177C45.3162 26.5538 45.3639 26.3889 45.4025 26.2187C45.4235 26.1333 45.4235 26.1333 45.4554 26.045C45.5685 25.6919 45.5681 25.3045 45.567 24.9375C45.567 24.9144 45.567 24.8914 45.567 24.8677C45.5648 24.2585 45.4647 23.696 45.2267 23.1327C45.2182 23.1123 45.2096 23.0918 45.2008 23.0707C44.9978 22.5955 44.7198 22.1647 44.374 21.7777C44.3501 21.7502 44.3261 21.7228 44.3015 21.6945C43.895 21.2371 43.4207 20.9017 42.8816 20.6133C42.8133 20.5766 42.7457 20.5388 42.6794 20.4988C42.0698 20.1483 41.2647 20.0642 40.5759 20.061C40.5312 20.0607 40.4866 20.0604 40.442 20.0601C40.3218 20.0592 40.2016 20.0585 40.0814 20.0579C39.9554 20.0572 39.8294 20.0563 39.7035 20.0554C39.4653 20.0538 39.2272 20.0524 38.9891 20.051C38.7179 20.0494 38.4466 20.0476 38.1753 20.0458C37.6177 20.0422 37.0601 20.0387 36.5025 20.0354C36.5387 19.9785 36.5751 19.9216 36.6115 19.8648C36.6317 19.8331 36.652 19.8014 36.6728 19.7688C36.7335 19.6783 36.7989 19.5994 36.8724 19.5191C36.9483 19.4325 37.0183 19.3418 37.0887 19.251C37.2072 19.0984 37.3274 18.9475 37.4498 18.7979C37.5788 18.6394 37.7059 18.4793 37.8333 18.3194C37.879 18.2621 37.9248 18.2048 37.9706 18.1475C37.9845 18.1299 37.9985 18.1124 38.0129 18.0943C38.0428 18.057 38.0729 18.0199 38.1034 17.983C38.1808 17.8886 38.2511 17.795 38.313 17.69C38.5627 17.2887 38.843 17.2954 39.2918 17.31Z" fill="#FF0126"/>
<path d="M37.2128 22.9289C37.2128 22.7043 37.4443 22.5455 37.6444 22.6538C37.7013 22.6845 37.7013 22.6845 37.7593 22.7158C37.7998 22.7379 37.8404 22.76 37.8822 22.7827C37.9465 22.8176 37.9465 22.8176 38.0121 22.8531C38.4019 23.0649 38.7892 23.2809 39.1762 23.4972C39.4446 23.6471 39.7137 23.7958 39.983 23.944C40.0285 23.969 40.0739 23.9939 40.1206 24.0197C40.3732 24.1584 40.6261 24.2964 40.8795 24.4337C40.9205 24.456 40.9205 24.456 40.9624 24.4787C41.0948 24.5505 41.2273 24.6222 41.36 24.6938C41.4611 24.7486 41.5616 24.8034 41.661 24.8598C41.8848 24.9867 41.9514 25.2483 41.7217 25.3648C41.4289 25.5165 41.1444 25.6787 40.8611 25.8457C40.5733 26.0148 40.2848 26.182 39.9917 26.3429C39.6376 26.5375 39.2871 26.7377 38.937 26.9386C38.8808 26.9708 38.8246 27.003 38.7684 27.0352C38.727 27.059 38.727 27.059 38.6847 27.0832C38.6573 27.0989 38.6298 27.1147 38.6016 27.1309C38.5743 27.1465 38.5469 27.1622 38.5188 27.1783C38.2604 27.3264 38.002 27.4744 37.7431 27.6217C37.7051 27.6434 37.667 27.6652 37.6279 27.6876C37.5932 27.7073 37.5584 27.727 37.5227 27.7473C37.4779 27.7729 37.4779 27.7729 37.4322 27.7989C37.3286 27.8522 37.2128 27.7665 37.2128 27.6515C37.2128 26.0911 37.2128 24.5289 37.2128 22.9289Z" fill="#FF0126"/>
<path d="M34.5424 25.8174L31.917 25.8891L37.0238 17.1184C37.0632 16.9713 36.974 16.7784 36.8724 16.793L30.0818 17.2179C30.0393 17.224 30.0048 17.269 29.9943 17.3372L27.0041 29.2163C26.9799 29.3613 27.0663 29.5278 27.1604 29.5144L29.8145 29.0808L27.9985 39.7557C28.0033 39.9633 28.1695 40.0864 28.2333 39.9278L34.6847 26.1628C34.7425 26.0237 34.6516 25.8018 34.5424 25.8174Z" fill="#FF0126"/>
<path d="M144.291 38.5284C140.943 38.5284 138.791 35.7684 139.299 31.6873C139.837 26.872 143.813 23.0845 148.028 23.0845C150.031 23.0845 151.436 24.0828 151.376 25.6682C151.287 28.4282 147.101 30.4835 142.557 30.689C142.049 34.4178 143.454 36.7373 146.025 36.7373C148.327 36.7373 150.48 34.4765 151.436 30.7183L151.765 30.8064C150.779 35.2693 147.669 38.5284 144.291 38.5284ZM142.587 30.3954C147.072 29.955 148.895 26.9014 148.835 24.9929C148.776 24.1121 148.267 23.5543 147.46 23.5543C145.368 23.5543 143.185 26.6078 142.617 30.2779C142.617 30.3073 142.617 30.3366 142.587 30.3954Z" fill="#F5F5F0"/>
<path d="M135.141 20.3832C135.53 18.6509 135.052 18.1224 133.766 18.1224V17.7114C135.53 17.5939 137.085 17.3884 138.938 16.2433L139.177 16.4489L135.65 32.9204C135.141 35.2693 134.663 36.6199 135.351 36.6786C136.008 36.7667 137.144 35.328 137.981 32.0983L138.25 32.1863C137.085 37.119 134.992 38.7045 133.288 38.3815C131.644 38.0879 131.703 36.2382 132.331 33.3902L135.141 20.3832Z" fill="#F5F5F0"/>
<path d="M119.053 38.5576C116.243 38.5576 115.167 35.3573 115.944 31.7459C117.02 26.8132 120.877 23.1431 124.913 23.1431C126.228 23.1431 127.155 23.6129 127.962 24.3175L130.234 22.8201L130.533 23.055L128.351 32.9203C127.842 35.2692 127.364 36.6491 128.052 36.6785C128.679 36.7666 129.845 35.3279 130.682 32.1276L130.981 32.2156C129.786 37.1189 127.663 38.7044 125.989 38.4108C124.315 38.0878 124.464 36.2381 125.152 33.4194L125.6 31.6871C124.106 35.1811 121.564 38.5576 119.053 38.5576ZM119.502 30.0429C118.067 34.5352 118.964 36.7959 120.548 36.7959C122.491 36.7959 125.451 32.4799 126.348 28.0464C126.856 25.3452 126.348 23.6422 124.883 23.6422C123.268 23.6422 120.877 25.7856 119.502 30.0429Z" fill="#F5F5F0"/>
<path d="M107.774 38.5283C104.366 38.499 102.094 35.7684 102.572 31.7459C103.11 27.0482 106.996 23.1432 111.271 23.1432C113.543 23.1432 114.859 24.4057 114.978 25.9912C115.068 27.3124 114.321 27.9584 113.543 28.0758C112.527 28.1933 111.809 27.5767 111.72 26.6958C111.6 25.6976 112.497 25.1691 112.377 24.4057C112.288 23.7891 111.779 23.5249 111.122 23.5836C108.91 23.6717 106.458 26.7546 105.89 30.4247C105.262 34.2416 106.787 36.7373 109.388 36.7373C111.72 36.7373 113.962 34.6233 114.859 30.7477L115.158 30.8064C114.171 35.4161 111.032 38.5283 107.774 38.5283Z" fill="#F5F5F0"/>
<path d="M93.4775 38.4697C91.5044 38.4697 90.2489 37.765 89.4417 37.442C88.6644 37.1484 87.6181 37.1191 87.3192 38.2641H86.9006L88.4253 30.3954L88.8438 30.4248C88.4851 34.4179 89.8004 37.9705 93.5074 37.9999C95.7196 37.9999 97.603 36.7667 98.0514 34.8289C98.44 33.0966 97.6927 31.3349 95.9588 30.1018L92.9992 27.9878C90.7571 26.3729 89.7407 24.5232 90.3087 22.233C91.0859 19.1208 94.3444 17.4178 97.2741 17.4472C99.2771 17.4766 100.353 18.0638 101.19 18.4455C101.878 18.7391 102.715 18.6216 103.044 17.4472H103.403L101.788 25.0517L101.37 25.0223C101.878 20.6182 100.024 18.0344 97.304 17.917C95.1516 17.8583 93.5971 19.1501 93.2085 20.8824C92.8497 22.4092 93.5074 23.9947 95.1815 25.2279L98.1112 27.4006C100.234 28.9567 101.519 30.8652 100.891 33.4489C99.9647 37.1778 96.2876 38.499 93.4775 38.4697Z" fill="#F5F5F0"/>
<path d="M82.3578 17.271H85.5267V38.2641H82.3578V17.271Z" fill="#F5F5F0"/>
<path d="M72.8514 36.1794C75.4523 36.1794 76.4986 34.594 76.7676 33.6838H79.9066C79.1293 36.5318 76.8573 38.7045 72.9411 38.7045C68.1878 38.7045 65.288 35.4748 65.288 30.777C65.288 25.9031 68.1878 22.8496 72.7916 22.8496C77.7243 22.8496 80.1458 26.2261 80.1458 31.5698H68.427C68.427 34.0948 70.0712 36.1794 72.8514 36.1794ZM72.7916 25.2865C70.2506 25.2865 68.427 26.9601 68.427 29.2796H77.0068C77.0068 26.9601 75.3327 25.2865 72.7916 25.2865Z" fill="#F5F5F0"/>
<path d="M56.6486 36.1794C59.2495 36.1794 60.2958 34.594 60.5649 33.6838H63.7038C62.9265 36.5318 60.6546 38.7045 56.7383 38.7045C51.985 38.7045 49.0853 35.4748 49.0853 30.777C49.0853 25.9031 51.985 22.8496 56.5889 22.8496C61.5215 22.8496 63.943 26.2261 63.943 31.5698H52.2242C52.2242 34.0948 53.8684 36.1794 56.6486 36.1794ZM56.5889 25.2865C54.0478 25.2865 52.2242 26.9601 52.2242 29.2796H60.804C60.804 26.9601 59.1299 25.2865 56.5889 25.2865Z" fill="#F5F5F0"/>
<path d="M148.028 22.8887C149.061 22.8887 149.959 23.1457 150.597 23.6264C151.241 24.1114 151.608 24.8171 151.576 25.6754C151.527 27.1575 150.383 28.4103 148.734 29.3076C147.117 30.1874 144.971 30.7522 142.734 30.8757C142.518 32.6403 142.747 34.048 143.31 35.0143C143.883 35.999 144.811 36.5416 146.025 36.5416L146.025 36.7373L145.906 36.7356C143.411 36.6645 142.057 34.3596 142.557 30.689C147.066 30.4851 151.222 28.4601 151.374 25.7327L151.376 25.6682C151.434 24.1323 150.118 23.1474 148.214 23.0874L148.028 23.0845C143.813 23.0845 139.837 26.872 139.299 31.6873C138.791 35.7684 140.943 38.5284 144.291 38.5284C147.669 38.5284 150.779 35.2693 151.765 30.8064L151.436 30.7183C150.48 34.4765 148.327 36.7373 146.025 36.7373L146.025 36.5416C147.105 36.5416 148.169 36.0116 149.087 35.0065C150.005 34.0008 150.77 32.527 151.243 30.6707L151.292 30.4769L152 30.6663L151.96 30.8479C150.964 35.3533 147.805 38.724 144.291 38.724C142.557 38.724 141.121 38.0069 140.188 36.7538C139.258 35.5044 138.842 33.7408 139.101 31.6634C139.649 26.7684 143.694 22.8887 148.028 22.8887ZM147.535 23.5559C148.299 23.5894 148.777 24.1397 148.835 24.9929C148.895 26.9014 147.072 29.955 142.587 30.3954C142.617 30.3366 142.617 30.3073 142.617 30.2779C143.185 26.6078 145.368 23.5543 147.46 23.5543L147.535 23.5559ZM147.46 23.7499C146.512 23.7499 145.495 24.4488 144.63 25.6526C143.793 26.817 143.129 28.4155 142.837 30.1701C147.027 29.6466 148.689 26.7605 148.636 25.0031C148.608 24.5967 148.478 24.2847 148.282 24.0764C148.088 23.8706 147.814 23.7499 147.46 23.7499Z" fill="#333333" fill-opacity="0.4"/>
<path d="M138.958 16L139.396 16.3771L135.845 32.9606C135.587 34.1502 135.345 35.0557 135.249 35.6871C135.201 36.0046 135.196 36.2184 135.229 36.3491C135.245 36.4104 135.266 36.4391 135.281 36.4531C135.291 36.4622 135.306 36.4724 135.335 36.4787L135.368 36.4835L135.373 36.4841L135.378 36.4846L135.412 36.4865C135.497 36.4854 135.625 36.4417 135.794 36.3036C135.984 36.1491 136.2 35.8957 136.429 35.53C136.886 34.7999 137.373 33.653 137.788 32.0499L137.841 31.8459L138.044 31.9127L138.486 32.057L138.445 32.2305C137.858 34.7138 137.032 36.3785 136.12 37.385C135.204 38.3954 134.188 38.7514 133.25 38.5737C132.801 38.4931 132.452 38.3023 132.202 38.0022C131.955 37.7052 131.819 37.3182 131.76 36.8687C131.643 35.9764 131.823 34.7718 132.136 33.3488L134.946 20.3426L134.947 20.3411C135.14 19.479 135.098 18.9863 134.915 18.7102C134.742 18.4497 134.395 18.3181 133.766 18.3181H133.567V17.5285L133.753 17.516C135.504 17.3994 137.02 17.1972 138.832 16.0776L138.958 16ZM133.766 18.1224C135.052 18.1224 135.53 18.6509 135.141 20.3832L132.331 33.3902C131.703 36.2382 131.644 38.0879 133.288 38.3815C134.992 38.7045 137.085 37.119 138.25 32.1863L137.981 32.0983C137.144 35.328 136.008 36.7667 135.351 36.6786C134.706 36.6235 135.086 35.433 135.555 33.349L135.65 32.9204L139.177 16.4489L138.938 16.2433C137.085 17.3884 135.53 17.5939 133.766 17.7114V18.1224Z" fill="#333333" fill-opacity="0.4"/>
<path d="M130.244 22.5777L130.754 22.978L128.545 32.9609C128.288 34.1501 128.046 35.0632 127.95 35.698C127.901 36.0177 127.897 36.2321 127.93 36.3612C127.946 36.4215 127.966 36.4474 127.979 36.4586C127.987 36.4657 128 36.4747 128.028 36.4797L128.06 36.4831L128.07 36.4835L128.08 36.4848C128.154 36.4952 128.288 36.4634 128.482 36.3044C128.671 36.1498 128.889 35.8968 129.119 35.5329C129.58 34.8063 130.074 33.6666 130.489 32.079L130.541 31.8817L131.219 32.0814L131.175 32.2613C130.573 34.7304 129.732 36.3872 128.813 37.393C127.919 38.3701 126.939 38.7418 126.041 38.6171L125.954 38.6036L125.952 38.6034L125.951 38.603C125.494 38.5148 125.144 38.3179 124.899 38.0121C124.656 37.71 124.532 37.3201 124.486 36.8704C124.401 36.0188 124.596 34.8894 124.912 33.565C124.309 34.6733 123.613 35.7107 122.858 36.5613C121.711 37.8544 120.398 38.7534 119.053 38.7534C117.551 38.7534 116.516 37.8894 115.969 36.5804C115.426 35.2815 115.355 33.5359 115.749 31.7054C116.838 26.7147 120.753 22.9475 124.913 22.9474C126.223 22.9474 127.168 23.397 127.977 24.0716L130.244 22.5777ZM127.962 24.3175L127.886 24.2522C127.122 23.6056 126.245 23.1718 125.035 23.1445L124.913 23.1431C120.877 23.1431 117.02 26.8132 115.944 31.7459C115.179 35.3009 116.21 38.4577 118.923 38.5554L119.053 38.5576C121.564 38.5576 124.106 35.1811 125.6 31.6871L125.152 33.4194C124.464 36.2381 124.315 38.0878 125.989 38.4108C127.663 38.7044 129.786 37.1189 130.981 32.2156L130.682 32.1276C129.845 35.3279 128.679 36.7666 128.052 36.6785C127.364 36.6491 127.842 35.2692 128.351 32.9203L130.533 23.055L130.234 22.8201L127.962 24.3175ZM124.951 23.6436C126.363 23.6958 126.848 25.3874 126.348 28.0464C125.451 32.4799 122.491 36.7959 120.548 36.7959L120.548 36.6003C120.963 36.6003 121.467 36.3663 122.018 35.9035C122.565 35.4451 123.133 34.7827 123.674 33.9761C124.755 32.3638 125.708 30.201 126.152 28.0109C126.403 26.6728 126.397 25.6091 126.165 24.8907C126.05 24.5338 125.882 24.2723 125.673 24.1006C125.467 23.9311 125.207 23.838 124.883 23.838C124.159 23.838 123.207 24.326 122.251 25.3766C121.302 26.4201 120.372 27.9941 119.692 30.1015C118.979 32.3328 118.855 33.9838 119.088 35.0636C119.204 35.6021 119.406 35.9869 119.656 36.2348C119.902 36.4794 120.205 36.6003 120.548 36.6003L120.548 36.7959L120.474 36.7943C118.936 36.7248 118.089 34.465 119.502 30.0429C120.877 25.7856 123.268 23.6422 124.883 23.6422L124.951 23.6436Z" fill="#333333" fill-opacity="0.4"/>
<path d="M111.271 22.9474C112.445 22.9474 113.39 23.274 114.06 23.8223C114.709 24.3542 115.089 25.0857 115.17 25.8979L115.177 25.9768L115.177 25.9781L115.183 26.1076C115.202 26.7452 115.032 27.2441 114.743 27.6058C114.435 27.9904 114.007 28.2039 113.574 28.2693L113.57 28.2699L113.567 28.2703C113.011 28.3344 112.523 28.1987 112.159 27.913C111.796 27.6277 111.571 27.2034 111.521 26.7152C111.455 26.1517 111.678 25.7228 111.873 25.3695C112.065 25.0213 112.209 24.7715 112.187 24.4917L112.18 24.4355L112.18 24.4334C112.143 24.1774 112.023 24.0099 111.857 23.9072C111.684 23.8008 111.44 23.7518 111.14 23.7786L111.135 23.7789L111.13 23.7791C110.111 23.8197 108.993 24.5584 108.048 25.7793C107.108 26.993 106.366 28.6505 106.087 30.4542L106.087 30.4559C105.778 32.3367 106.003 33.8662 106.602 34.9166C107.196 35.9584 108.163 36.5416 109.388 36.5416L109.388 36.7373L109.267 36.7354C106.78 36.6602 105.319 34.2601 105.862 30.6027L105.89 30.4247C106.449 26.8119 108.833 23.7682 111.018 23.5899L111.122 23.5836C111.779 23.5249 112.288 23.7891 112.377 24.4057C112.497 25.1691 111.6 25.6976 111.72 26.6958C111.809 27.5767 112.527 28.1933 113.543 28.0758C114.321 27.9584 115.068 27.3124 114.978 25.9912C114.861 24.4305 113.584 23.1827 111.377 23.1441L111.271 23.1432C106.996 23.1432 103.11 27.0482 102.572 31.7459C102.101 35.7055 104.295 38.4133 107.615 38.525L107.774 38.5283C111.032 38.5283 114.171 35.4161 115.158 30.8064L114.859 30.7477C113.962 34.6233 111.72 36.7373 109.388 36.7373L109.388 36.5416C111.582 36.5416 113.776 34.5422 114.664 30.7042L114.707 30.5184L115.394 30.6532L115.353 30.8466C114.356 35.5019 111.166 38.7239 107.774 38.724H107.772C106.011 38.7088 104.532 37.9939 103.558 36.7542C102.585 35.5167 102.13 33.7744 102.374 31.7232C102.921 26.9491 106.874 22.9474 111.271 22.9474Z" fill="#333333" fill-opacity="0.4"/>
<path d="M90.1151 22.1863C90.921 18.9594 94.2848 17.2215 97.2762 17.2515C99.3234 17.2815 100.435 17.8849 101.271 18.2663C101.582 18.3988 101.904 18.4285 102.174 18.3164C102.439 18.2066 102.698 17.9425 102.852 17.3952L102.892 17.2515H103.648L101.948 25.259L101.148 25.203L101.172 25.0002C101.423 22.826 101.087 21.126 100.377 19.9628C99.6705 18.8066 98.5877 18.1693 97.2986 18.1126C95.2387 18.0564 93.7705 19.2867 93.4031 20.9245L93.4027 20.9264C93.0658 22.3601 93.674 23.8726 95.3011 25.0711L98.2302 27.2436L98.4297 27.3927C99.4142 28.1436 100.217 28.9846 100.711 29.9516C101.24 30.988 101.41 32.1583 101.085 33.4942C100.127 37.3508 96.3294 38.6951 93.4755 38.6653C91.4545 38.6648 90.1547 37.9387 89.3665 37.6233C88.9984 37.4849 88.5893 37.4185 88.2503 37.5033C87.9291 37.5836 87.6448 37.8052 87.5123 38.3126L87.4737 38.4598H86.6598L88.2626 30.1877L89.0602 30.2437L89.0422 30.4419C88.8648 32.4176 89.1043 34.2618 89.8272 35.6072C90.5432 36.9399 91.7348 37.7897 93.5084 37.804C95.6495 37.8036 97.4332 36.6143 97.8567 34.7866C98.2139 33.1944 97.5657 31.561 95.9967 30.3737L95.842 30.2603L92.8821 28.146C91.7448 27.3269 90.9026 26.4372 90.4204 25.4481C89.9361 24.4546 89.8208 23.3728 90.1151 22.1863ZM97.2741 17.4472C94.3444 17.4178 91.0859 19.1208 90.3087 22.233C89.7407 24.5232 90.7571 26.3729 92.9992 27.9878L95.9588 30.1018C97.6927 31.3349 98.44 33.0966 98.0514 34.8289C97.603 36.7667 95.7196 37.9999 93.5074 37.9999L93.3354 37.9959C89.7597 37.8593 88.4907 34.3554 88.8438 30.4248L88.4253 30.3954L86.9006 38.2641H87.3192L87.3338 38.2113C87.6508 37.12 88.6766 37.153 89.4417 37.442C90.2489 37.765 91.5044 38.4697 93.4775 38.4697C96.2876 38.499 99.9647 37.1778 100.891 33.4489C101.5 30.9459 100.312 29.0766 98.3077 27.5475L98.1112 27.4006L95.1815 25.2279C93.5597 24.0332 92.8919 22.5078 93.1779 21.0256L93.2085 20.8824C93.5971 19.1501 95.1516 17.8583 97.304 17.917C100.024 18.0344 101.878 20.6182 101.37 25.0223L101.788 25.0517L103.403 17.4472H103.044C102.725 18.5848 101.93 18.7307 101.255 18.4718L101.19 18.4455C100.353 18.0638 99.2771 17.4766 97.2741 17.4472Z" fill="#333333" fill-opacity="0.4"/>
<path d="M82.3578 17.271V38.2641H85.5267V17.271H82.3578ZM85.726 38.4598H82.1584V17.0752H85.726V38.4598Z" fill="#333333" fill-opacity="0.4"/>
<path d="M65.0887 30.777C65.0887 28.3024 65.8254 26.2689 67.1676 24.8523C68.5112 23.434 70.443 22.6538 72.7916 22.6538C75.3085 22.6538 77.2088 23.5179 78.4745 25.0841C79.7344 26.6432 80.3451 28.8726 80.3451 31.5697V31.7655H68.63C68.6702 32.9091 69.0627 33.938 69.7454 34.6912C70.4646 35.4846 71.5158 35.9836 72.8515 35.9836L72.8514 36.1794L72.7219 36.1778C70.0202 36.1141 68.427 34.0553 68.427 31.5698H80.1458C80.1458 26.3096 77.7994 22.9556 73.021 22.852L72.7916 22.8496C68.1878 22.8496 65.288 25.9031 65.288 30.777L65.2902 30.9961C65.3791 35.5749 68.2621 38.7045 72.9411 38.7045C76.8573 38.7045 79.1293 36.5318 79.9066 33.6838H76.7676C76.4986 34.594 75.4523 36.1794 72.8514 36.1794L72.8515 35.9836C75.3466 35.9836 76.3269 34.4729 76.5763 33.6292L76.6179 33.4879H80.1664L80.0991 33.7345C79.7011 35.1926 78.918 36.4864 77.7248 37.4155C76.5305 38.3455 74.9382 38.9002 72.941 38.9002C70.5163 38.9002 68.5475 38.0751 67.1861 36.6356C65.8262 35.1979 65.0887 33.1651 65.0887 30.777ZM72.9101 25.2877C75.3846 25.3389 77.0068 26.9964 77.0068 29.2796H68.427C68.427 26.9601 70.2506 25.2865 72.7916 25.2865L72.9101 25.2877ZM72.7916 25.4823C70.4204 25.4823 68.7301 26.9866 68.631 29.0838H76.8032C76.759 28.0564 76.3659 27.1817 75.7127 26.5531C75.0183 25.8849 74.0165 25.4823 72.7916 25.4823Z" fill="#333333" fill-opacity="0.4"/>
<path d="M48.886 30.777C48.886 28.3024 49.6227 26.2689 50.9648 24.8523C52.3085 23.434 54.2402 22.6538 56.5888 22.6538C59.1057 22.6538 61.006 23.5179 62.2717 25.0841C63.5316 26.6432 64.1423 28.8726 64.1423 31.5697V31.7655H52.4273C52.4675 32.9091 52.8599 33.938 53.5427 34.6912C54.2619 35.4846 55.3131 35.9836 56.6487 35.9836L56.6486 36.1794L56.5191 36.1778C53.8174 36.1141 52.2242 34.0553 52.2242 31.5698H63.943C63.9429 26.3096 61.5966 22.9556 56.8183 22.852L56.5889 22.8496C51.985 22.8496 49.0853 25.9031 49.0853 30.777L49.0875 30.9961C49.1764 35.5749 52.0593 38.7045 56.7383 38.7045C60.6546 38.7045 62.9265 36.5318 63.7038 33.6838H60.5649C60.2958 34.594 59.2495 36.1794 56.6486 36.1794L56.6487 35.9836C59.1439 35.9836 60.1241 34.4729 60.3735 33.6292L60.4151 33.4879H63.9636L63.8963 33.7345C63.4983 35.1926 62.7152 36.4864 61.522 37.4155C60.3277 38.3455 58.7354 38.9002 56.7383 38.9002C54.3135 38.9002 52.3448 38.0751 50.9833 36.6356C49.6235 35.1979 48.886 33.1651 48.886 30.777ZM56.7073 25.2877C59.1818 25.3389 60.804 26.9964 60.804 29.2796H52.2242C52.2242 26.9601 54.0478 25.2865 56.5889 25.2865L56.7073 25.2877ZM56.5888 25.4823C54.2176 25.4823 52.5273 26.9866 52.4283 29.0838H60.6004C60.5562 28.0564 60.1632 27.1817 59.5099 26.5531C58.8155 25.8849 57.8138 25.4823 56.5888 25.4823Z" fill="#333333" fill-opacity="0.4"/>
</svg>
