<svg width="179" height="56" viewBox="0 0 179 56" fill="none" xmlns="http://www.w3.org/2000/svg">
<g filter="url(#filter0_dd_26_64)">
<path d="M14 28C14 20.268 20.2878 14 28.0442 14C35.8006 14 42.0884 20.268 42.0884 28C42.0884 35.732 35.8006 42 28.0442 42C20.2878 42 14 35.732 14 28Z" fill="#C1121F" shape-rendering="crispEdges"/>
<path d="M29.9094 22.0765C29.947 22.0768 29.9847 22.077 30.0223 22.0772C30.1213 22.0778 30.2201 22.0801 30.319 22.0826C30.3987 22.0844 30.4783 22.085 30.558 22.0856C30.6545 22.0863 30.7511 22.0876 30.8476 22.089C30.8654 22.0893 30.8832 22.0895 30.9016 22.0897C31.5283 22.0998 32.1698 22.2041 32.7264 22.5047C32.7614 22.5235 32.7968 22.5417 32.8322 22.5598C33.1322 22.7142 33.4012 22.9092 33.648 23.1385C33.6871 23.1746 33.727 23.2091 33.7677 23.2432C34.4678 23.8559 34.9929 24.9291 35.0546 25.8523C35.1017 26.683 35.0146 27.4645 34.6443 28.2192C34.6367 28.2346 34.6292 28.2499 34.6215 28.2658C34.5115 28.488 34.3902 28.6958 34.242 28.8947C34.2341 28.9054 34.2262 28.9162 34.218 28.9272C33.873 29.3923 33.4388 29.7874 32.9303 30.0667C32.8725 30.0986 32.8162 30.1326 32.7598 30.1669C32.6672 30.221 32.5736 30.2609 32.4728 30.2972C32.4352 30.3108 32.3979 30.3253 32.3611 30.3407C31.9155 30.5266 31.4123 30.6027 30.9324 30.6108C31.0072 30.6985 31.0831 30.7816 31.169 30.8584C31.1897 30.8772 31.2104 30.896 31.2311 30.9149C31.2474 30.9296 31.2474 30.9296 31.264 30.9447C31.3251 31.0005 31.3853 31.0573 31.4456 31.114C31.5481 31.2102 31.6512 31.3056 31.7551 31.4002C31.7954 31.437 31.8355 31.4741 31.8754 31.5112C31.8866 31.5216 31.8978 31.532 31.9093 31.5428C31.9307 31.5627 31.9521 31.5826 31.9734 31.6025C32.0275 31.6529 32.0823 31.7022 32.1381 31.7507C32.2118 31.8147 32.2831 31.8811 32.3541 31.9481C32.459 32.0467 32.5645 32.1445 32.6709 32.2415C32.7285 32.2941 32.7859 32.347 32.8432 32.3999C32.9557 32.5037 33.0685 32.607 33.1815 32.7103C33.2177 32.7434 33.2539 32.7765 33.29 32.8095C33.299 32.8177 33.3079 32.8259 33.3172 32.8344C33.3657 32.8788 33.4141 32.9233 33.4624 32.9679C33.5846 33.0813 33.5846 33.0813 33.7094 33.1918C33.7939 33.2646 33.8747 33.3413 33.9561 33.4175C34.0356 33.4918 34.1159 33.5651 34.1971 33.6376C34.2489 33.6841 34.3003 33.7312 34.3517 33.7783C34.5276 33.9415 34.5276 33.9415 34.7105 34.0966C34.7249 34.109 34.7392 34.1215 34.754 34.1343C34.754 34.1463 34.754 34.1584 34.754 34.1708C34.4567 34.1751 34.1595 34.1783 33.8623 34.1802C33.7242 34.1812 33.5862 34.1825 33.4482 34.1846C33.3278 34.1864 33.2075 34.1876 33.0871 34.188C33.0234 34.1882 32.9598 34.1888 32.8961 34.1901C32.8248 34.1916 32.7536 34.1916 32.6823 34.1915C32.6614 34.1922 32.6406 34.1928 32.619 34.1935C32.4958 34.1919 32.4366 34.1698 32.3484 34.0819C32.3211 34.0509 32.2941 34.0196 32.2672 33.9882C32.2452 33.968 32.2228 33.948 32.1998 33.9289C32.1266 33.8663 32.0564 33.8007 31.9861 33.7349C31.9106 33.6642 31.8349 33.5937 31.7575 33.525C31.6604 33.4383 31.5659 33.3488 31.4711 33.2595C31.3533 33.1485 31.2345 33.0387 31.1153 32.9294C30.9695 32.7955 30.8247 32.6607 30.6806 32.525C30.6066 32.4554 30.5322 32.3862 30.457 32.3178C30.3661 32.2348 30.276 32.151 30.1862 32.0667C30.1733 32.0547 30.1604 32.0426 30.1471 32.0301C30.0879 31.9745 30.0294 31.9184 29.9723 31.8605C29.9169 31.8048 29.8587 31.7533 29.7993 31.702C29.737 31.6476 29.6771 31.5907 29.6171 31.5339C29.5897 31.5081 29.5623 31.4823 29.535 31.4564C29.5211 31.4434 29.5072 31.4303 29.493 31.4168C29.427 31.3546 29.3609 31.2925 29.2948 31.2304C29.282 31.2183 29.2692 31.2063 29.256 31.1939C28.978 30.9326 28.978 30.9326 28.6981 30.6734C28.6465 30.626 28.5951 30.5784 28.5438 30.5307C28.527 30.5151 28.527 30.5151 28.5098 30.4991C28.4885 30.4793 28.4673 30.4595 28.4461 30.4397C28.3925 30.3898 28.3382 30.341 28.2829 30.293C28.2061 30.2263 28.1321 30.157 28.0583 30.0871C27.8972 29.9351 27.7355 29.7839 27.5703 29.6364C27.4897 29.5641 27.4099 29.4909 27.3304 29.4173C27.3183 29.4062 27.3062 29.3951 27.2938 29.3837C27.2825 29.3732 27.2712 29.3627 27.2595 29.3518C27.2494 29.3424 27.2392 29.3331 27.2288 29.3234C27.2024 29.2963 27.2024 29.2963 27.1658 29.2416C27.1841 29.2415 27.2024 29.2415 27.2212 29.2414C27.6678 29.2404 28.1144 29.239 28.5611 29.2373C28.7771 29.2365 28.993 29.2357 29.209 29.2352C29.3975 29.2348 29.5859 29.2342 29.7743 29.2334C29.8739 29.2329 29.9735 29.2326 30.0732 29.2325C30.1673 29.2324 30.2614 29.232 30.3555 29.2315C30.3897 29.2313 30.4239 29.2312 30.4581 29.2313C31.1715 29.2317 31.8624 29.032 32.4135 28.5661C32.4233 28.5578 32.4332 28.5496 32.4433 28.5411C32.7088 28.315 32.8989 28.0453 33.0718 27.7446C33.0797 27.7309 33.0877 27.7173 33.0958 27.7032C33.1452 27.6169 33.1864 27.531 33.2203 27.4376C33.225 27.4251 33.2296 27.4126 33.2343 27.3998C33.2679 27.307 33.2945 27.2137 33.316 27.1174C33.3278 27.0691 33.3278 27.0691 33.3455 27.0191C33.4086 26.8193 33.4084 26.6001 33.4077 26.3924C33.4077 26.3794 33.4077 26.3664 33.4077 26.3529C33.4065 26.0082 33.3507 25.69 33.218 25.3712C33.2133 25.3596 33.2085 25.3481 33.2036 25.3361C33.0904 25.0672 32.9354 24.8235 32.7426 24.6045C32.7293 24.5889 32.716 24.5734 32.7022 24.5574C32.4756 24.2986 32.2112 24.1088 31.9106 23.9456C31.8726 23.9248 31.8348 23.9035 31.7979 23.8808C31.4581 23.6825 31.0092 23.6349 30.6252 23.6331C30.6003 23.633 30.5754 23.6328 30.5505 23.6326C30.4835 23.6321 30.4165 23.6317 30.3495 23.6313C30.2793 23.6309 30.2091 23.6304 30.1388 23.63C30.0061 23.629 29.8733 23.6282 29.7406 23.6274C29.5894 23.6265 29.4381 23.6255 29.2869 23.6245C28.976 23.6224 28.6652 23.6205 28.3543 23.6186C28.3745 23.5864 28.3948 23.5542 28.4151 23.5221C28.4264 23.5041 28.4376 23.4862 28.4493 23.4677C28.4831 23.4166 28.5196 23.3719 28.5605 23.3265C28.6028 23.2775 28.6419 23.2262 28.6811 23.1748C28.7472 23.0884 28.8142 23.003 28.8824 22.9184C28.9544 22.8287 29.0252 22.7381 29.0962 22.6477C29.1217 22.6152 29.1472 22.5828 29.1728 22.5503C29.1805 22.5404 29.1883 22.5305 29.1963 22.5203C29.213 22.4991 29.2298 22.4781 29.2468 22.4573C29.29 22.4038 29.3292 22.3509 29.3637 22.2915C29.5029 22.0644 29.6591 22.0682 29.9094 22.0765Z" fill="#F5F5F0" shape-rendering="crispEdges"/>
<path d="M28.0442 25.169C28.0442 25.0419 28.1733 24.9521 28.2848 25.0133C28.3165 25.0307 28.3165 25.0307 28.3489 25.0484C28.3715 25.0609 28.3941 25.0734 28.4174 25.0863C28.4532 25.106 28.4532 25.106 28.4898 25.1261C28.7071 25.246 28.923 25.3682 29.1388 25.4906C29.2884 25.5754 29.4384 25.6595 29.5886 25.7434C29.6139 25.7575 29.6392 25.7716 29.6653 25.7862C29.8061 25.8647 29.9471 25.9428 30.0884 26.0205C30.1113 26.0331 30.1113 26.0331 30.1346 26.0459C30.2084 26.0866 30.2823 26.1272 30.3562 26.1677C30.4126 26.1986 30.4686 26.2297 30.524 26.2616C30.6488 26.3334 30.686 26.4814 30.5579 26.5473C30.3946 26.6332 30.236 26.7249 30.0781 26.8194C29.9177 26.9151 29.7568 27.0098 29.5935 27.1008C29.396 27.2109 29.2006 27.3242 29.0054 27.4379C28.9741 27.4561 28.9428 27.4743 28.9115 27.4925C28.8884 27.506 28.8884 27.506 28.8648 27.5197C28.8495 27.5286 28.8342 27.5375 28.8184 27.5467C28.8032 27.5555 28.788 27.5644 28.7723 27.5735C28.6283 27.6573 28.4842 27.741 28.3398 27.8244C28.3186 27.8367 28.2974 27.849 28.2756 27.8617C28.2563 27.8729 28.2369 27.884 28.217 27.8955C28.192 27.9099 28.192 27.9099 28.1665 27.9247C28.1088 27.9548 28.0442 27.9063 28.0442 27.8412C28.0442 26.9583 28.0442 26.0743 28.0442 25.169Z" fill="#F5F5F0" shape-rendering="crispEdges"/>
<path d="M26.9163 27.1425L25.0438 26.9545L28.3489 22.4573C28.3903 22.3818 28.3684 22.2639 28.3115 22.2582L25.2369 21.9461C25.2131 21.9437 25.1883 21.9638 25.1733 21.9999L21.2117 28.239C21.1788 28.3153 21.2028 28.4184 21.2555 28.4237H23.4699L21.0275 34.0403C21.0016 34.1549 21.0747 34.2449 21.1309 34.1664L26.946 27.3514C26.9963 27.2828 26.9775 27.1487 26.9163 27.1425Z" fill="#F5F5F0" shape-rendering="crispEdges"/>
<path d="M157.659 38.7075C154.471 38.7075 152.421 36.0399 152.905 32.0953C153.418 27.4413 157.204 23.7805 161.218 23.7805C163.125 23.7805 164.463 24.7453 164.406 26.2778C164.321 28.9453 160.335 30.9318 156.008 31.1305C155.524 34.7345 156.862 36.9764 159.31 36.9764C161.502 36.9764 163.552 34.7913 164.463 31.1588L164.776 31.244C163.837 35.5575 160.876 38.7075 157.659 38.7075ZM156.037 30.8467C160.307 30.421 162.043 27.4697 161.986 25.6251C161.929 24.7737 161.446 24.2345 160.677 24.2345C158.684 24.2345 156.606 27.1859 156.065 30.7332C156.065 30.7616 156.065 30.7899 156.037 30.8467Z" fill="#C1121F" shape-rendering="crispEdges"/>
<path d="M148.946 21.1696C149.316 19.4953 148.861 18.9845 147.637 18.9845V18.5872C149.316 18.4737 150.796 18.275 152.561 17.1683L152.789 17.3669L149.43 33.2872C148.946 35.5575 148.491 36.8629 149.145 36.9196C149.772 37.0048 150.853 35.6142 151.651 32.4926L151.907 32.5777C150.796 37.3453 148.804 38.8777 147.181 38.5656C145.615 38.2818 145.672 36.494 146.27 33.7412L148.946 21.1696Z" fill="#C1121F" shape-rendering="crispEdges"/>
<path d="M133.626 38.7358C130.95 38.7358 129.925 35.6425 130.665 32.152C131.69 27.3844 135.362 23.8371 139.206 23.8371C140.458 23.8371 141.341 24.2912 142.109 24.9723L144.273 23.525L144.558 23.752L142.479 33.2871C141.995 35.5574 141.54 36.8912 142.195 36.9195C142.793 37.0047 143.903 35.6141 144.7 32.5209L144.985 32.606C143.846 37.3452 141.825 38.8777 140.23 38.5939C138.636 38.2817 138.779 36.4939 139.433 33.7696L139.86 32.0952C138.437 35.4723 136.017 38.7358 133.626 38.7358ZM134.053 30.506C132.686 34.8479 133.54 37.0331 135.049 37.0331C136.9 37.0331 139.718 32.8614 140.572 28.5763C141.056 25.9655 140.572 24.3195 139.177 24.3195C137.64 24.3195 135.362 26.3912 134.053 30.506Z" fill="#C1121F" shape-rendering="crispEdges"/>
<path d="M122.884 38.7075C119.639 38.6791 117.476 36.0399 117.931 32.1521C118.443 27.6115 122.144 23.8372 126.215 23.8372C128.379 23.8372 129.631 25.0575 129.745 26.5899C129.831 27.8669 129.119 28.4912 128.379 28.6048C127.411 28.7183 126.728 28.1223 126.642 27.271C126.528 26.3061 127.382 25.7953 127.269 25.0575C127.183 24.4615 126.699 24.2061 126.073 24.2629C123.966 24.348 121.632 27.3277 121.091 30.875C120.493 34.5642 121.945 36.9764 124.422 36.9764C126.642 36.9764 128.777 34.9331 129.631 31.1872L129.916 31.2439C128.977 35.6994 125.988 38.7075 122.884 38.7075Z" fill="#C1121F" shape-rendering="crispEdges"/>
<path d="M109.271 38.6508C107.392 38.6508 106.196 37.9697 105.428 37.6575C104.687 37.3737 103.691 37.3454 103.406 38.4521H103.008L104.46 30.8467L104.858 30.8751C104.517 34.7346 105.769 38.1683 109.299 38.1967C111.406 38.1967 113.199 37.0048 113.626 35.1319C113.996 33.4575 113.285 31.7548 111.634 30.5629L108.815 28.5197C106.68 26.9589 105.712 25.171 106.253 22.9575C106.993 19.9494 110.096 18.3035 112.886 18.3319C114.794 18.3602 115.818 18.9278 116.616 19.2967C117.27 19.5805 118.067 19.467 118.381 18.3319H118.722L117.185 25.6819L116.786 25.6535C117.27 21.3967 115.505 18.8994 112.915 18.7859C110.865 18.7291 109.385 19.9778 109.015 21.6521C108.673 23.1278 109.299 24.6602 110.893 25.8521L113.683 27.9521C115.705 29.4562 116.929 31.3008 116.331 33.7981C115.448 37.4021 111.947 38.6792 109.271 38.6508Z" fill="#C1121F" shape-rendering="crispEdges"/>
<path d="M98.6818 18.1615H101.699V38.4521H98.6818V18.1615Z" fill="#F5F5F0" shape-rendering="crispEdges"/>
<path d="M89.6292 36.4372C92.1059 36.4372 93.1023 34.9048 93.3585 34.025H96.3476C95.6075 36.7777 93.4439 38.8777 89.7146 38.8777C85.1882 38.8777 82.4268 35.7561 82.4268 31.2156C82.4268 26.5048 85.1882 23.5534 89.5723 23.5534C94.2695 23.5534 96.5754 26.8169 96.5754 31.9818H85.4159C85.4159 34.4223 86.9817 36.4372 89.6292 36.4372ZM89.5723 25.9088C87.1525 25.9088 85.4159 27.5264 85.4159 29.7683H93.5862C93.5862 27.5264 91.992 25.9088 89.5723 25.9088Z" fill="#F5F5F0" shape-rendering="crispEdges"/>
<path d="M74.1997 36.4372C76.6765 36.4372 77.6728 34.9048 77.9291 34.025H80.9182C80.178 36.7777 78.0145 38.8777 74.2852 38.8777C69.7587 38.8777 66.9973 35.7561 66.9973 31.2156C66.9973 26.5048 69.7587 23.5534 74.1428 23.5534C78.84 23.5534 81.1459 26.8169 81.1459 31.9818H69.9865C69.9865 34.4223 71.5522 36.4372 74.1997 36.4372ZM74.1428 25.9088C71.723 25.9088 69.9865 27.5264 69.9865 29.7683H78.1568C78.1568 27.5264 76.5626 25.9088 74.1428 25.9088Z" fill="#F5F5F0" shape-rendering="crispEdges"/>
<path d="M49.8696 38.4521V18.1615H58.5524C62.7372 18.1615 65.4416 20.2899 65.4416 23.9791C65.4416 26.8169 63.9898 28.4629 61.6554 29.0304V29.0872C66.3526 29.9669 64.6445 37.9129 65.7263 38.2534V38.4521H62.1678C61.2284 37.6007 63.1357 30.6196 58.2392 30.6196H53.2573V38.4521H49.8696ZM53.2573 21.0277V27.725H57.8407C59.9188 27.725 62.0824 27.3277 62.0824 24.3764C62.0824 21.4534 59.9188 21.0277 57.8407 21.0277H53.2573Z" fill="#F5F5F0" shape-rendering="crispEdges"/>
<path d="M161.218 23.5913C162.201 23.5913 163.057 23.8396 163.664 24.3043C164.277 24.773 164.627 25.4551 164.596 26.2846C164.55 27.7172 163.46 28.9281 161.89 29.7954C160.35 30.6456 158.306 31.1916 156.176 31.3109C155.97 33.0165 156.189 34.3771 156.724 35.311C157.271 36.2628 158.154 36.7872 159.31 36.7872L159.31 36.9764L159.196 36.9748C156.821 36.906 155.532 34.6782 156.008 31.1305C160.302 30.9334 164.259 28.9762 164.404 26.3401L164.406 26.2778C164.461 24.7932 163.207 23.8413 161.395 23.7832L161.218 23.7805C157.204 23.7805 153.418 27.4413 152.905 32.0953C152.421 36.0399 154.471 38.7075 157.659 38.7075C160.876 38.7075 163.837 35.5575 164.776 31.244L164.463 31.1588C163.552 34.7913 161.502 36.9764 159.31 36.9764L159.31 36.7872C160.339 36.7872 161.351 36.275 162.226 35.3035C163.101 34.3314 163.829 32.907 164.279 31.1128L164.326 30.9255L165 31.1086L164.962 31.2841C164.013 35.6387 161.005 38.8966 157.659 38.8966C156.008 38.8966 154.64 38.2035 153.752 36.9923C152.866 35.7847 152.47 34.0802 152.717 32.0723C153.239 27.3411 157.091 23.5913 161.218 23.5913ZM160.748 24.2361C161.475 24.2685 161.931 24.8003 161.986 25.6251C162.043 27.4697 160.307 30.421 156.037 30.8467C156.065 30.7899 156.065 30.7616 156.065 30.7332C156.606 27.1859 158.684 24.2345 160.677 24.2345L160.748 24.2361ZM160.677 24.4236C159.774 24.4236 158.805 25.0991 157.982 26.2627C157.185 27.3881 156.552 28.9331 156.274 30.629C160.265 30.123 161.847 27.3334 161.797 25.6349C161.77 25.2421 161.646 24.9405 161.459 24.7392C161.274 24.5402 161.014 24.4236 160.677 24.4236Z" fill="#333333" fill-opacity="0.4" shape-rendering="crispEdges"/>
<path d="M152.58 16.9331L152.998 17.2976L149.616 33.326C149.371 34.4759 149.14 35.3511 149.048 35.9614C149.002 36.2682 148.998 36.4749 149.03 36.6012C149.044 36.6604 149.064 36.6882 149.079 36.7017C149.088 36.7105 149.103 36.7203 149.13 36.7264L149.162 36.7311L149.166 36.7316L149.171 36.7322L149.203 36.734C149.285 36.7329 149.406 36.6907 149.568 36.5572C149.748 36.4078 149.954 36.1629 150.172 35.8095C150.607 35.1038 151.071 33.9953 151.467 32.4459L151.517 32.2487L151.71 32.3132L152.131 32.4527L152.092 32.6204C151.533 35.0206 150.747 36.6296 149.878 37.6024C149.005 38.579 148.038 38.9231 147.145 38.7514C146.717 38.6734 146.385 38.489 146.147 38.1989C145.912 37.9119 145.782 37.5378 145.726 37.1033C145.615 36.2409 145.786 35.0766 146.085 33.7013L148.76 21.1303L148.761 21.1289C148.945 20.2956 148.905 19.8194 148.73 19.5525C148.565 19.3008 148.235 19.1736 147.637 19.1736H147.447V18.4104L147.624 18.3984C149.292 18.2857 150.735 18.0902 152.461 17.0081L152.58 16.9331ZM147.637 18.9845C148.861 18.9845 149.316 19.4953 148.946 21.1696L146.27 33.7412C145.672 36.494 145.615 38.2818 147.181 38.5656C148.804 38.8777 150.796 37.3453 151.907 32.5777L151.651 32.4926C150.853 35.6142 149.772 37.0048 149.145 36.9196C148.531 36.8664 148.893 35.7157 149.34 33.7015L149.43 33.2872L152.789 17.3669L152.561 17.1683C150.796 18.275 149.316 18.4737 147.637 18.5872V18.9845Z" fill="#333333" fill-opacity="0.4" shape-rendering="crispEdges"/>
<path d="M144.283 23.2907L144.768 23.6776L142.665 33.3264C142.42 34.4758 142.189 35.3583 142.098 35.9719C142.052 36.2809 142.047 36.4881 142.079 36.6128C142.094 36.6712 142.113 36.6961 142.125 36.707C142.133 36.7139 142.146 36.7226 142.172 36.7274L142.203 36.7307L142.212 36.7311L142.221 36.7324C142.292 36.7424 142.42 36.7117 142.605 36.5579C142.785 36.4086 142.992 36.164 143.211 35.8123C143.65 35.11 144.121 34.0085 144.516 32.4739L144.565 32.2833L145.211 32.4763L145.169 32.6502C144.596 35.0367 143.795 36.638 142.919 37.6101C142.069 38.5546 141.136 38.9138 140.28 38.7933L140.197 38.7802L140.195 38.78L140.194 38.7796C139.759 38.6944 139.426 38.5041 139.192 38.2085C138.962 37.9165 138.843 37.5397 138.8 37.105C138.718 36.282 138.904 35.1903 139.205 33.9102C138.631 34.9815 137.968 35.9841 137.249 36.8063C136.157 38.0561 134.906 38.925 133.626 38.925C132.195 38.925 131.21 38.0899 130.689 36.8247C130.172 35.5693 130.104 33.8821 130.48 32.1129C131.517 27.2892 135.244 23.648 139.205 23.648C140.453 23.648 141.353 24.0826 142.124 24.7345L144.283 23.2907ZM142.109 24.9723L142.037 24.9091C141.309 24.2841 140.475 23.8649 139.322 23.8385L139.206 23.8371C135.362 23.8371 131.69 27.3844 130.665 32.152C129.937 35.588 130.918 38.6392 133.502 38.7336L133.626 38.7358C136.017 38.7358 138.437 35.4723 139.86 32.0952L139.433 33.7696C138.779 36.4939 138.636 38.2817 140.23 38.5939C141.825 38.8777 143.846 37.3452 144.985 32.606L144.7 32.5209C143.903 35.6141 142.793 37.0047 142.195 36.9195C141.54 36.8912 141.995 35.5574 142.479 33.2871L144.558 23.752L144.273 23.525L142.109 24.9723ZM139.242 24.3209C140.587 24.3713 141.048 26.0063 140.572 28.5763C139.718 32.8614 136.9 37.0331 135.049 37.0331L135.049 36.8439C135.445 36.8439 135.924 36.6178 136.45 36.1705C136.97 35.7274 137.511 35.0872 138.026 34.3076C139.055 32.7493 139.963 30.6588 140.385 28.542C140.625 27.2487 140.619 26.2206 140.398 25.5262C140.289 25.1813 140.129 24.9286 139.93 24.7626C139.733 24.5988 139.486 24.5088 139.177 24.5088C138.488 24.5088 137.581 24.9805 136.671 25.9959C135.767 27.0044 134.882 28.5258 134.234 30.5626C133.555 32.7192 133.437 34.3151 133.658 35.3587C133.769 35.8792 133.962 36.2511 134.2 36.4907C134.435 36.7271 134.722 36.8439 135.049 36.8439L135.049 37.0331L134.979 37.0315C133.514 36.9643 132.708 34.7801 134.053 30.506C135.362 26.3912 137.64 24.3195 139.177 24.3195L139.242 24.3209Z" fill="#333333" fill-opacity="0.4" shape-rendering="crispEdges"/>
<path d="M126.215 23.648C127.333 23.648 128.232 23.9636 128.87 24.4936C129.489 25.0077 129.851 25.7147 129.928 26.4997L129.934 26.576L129.935 26.5773L129.941 26.7024C129.959 27.3187 129.796 27.8009 129.521 28.1505C129.228 28.5222 128.82 28.7285 128.408 28.7918L128.404 28.7923L128.401 28.7927C127.872 28.8547 127.407 28.7235 127.061 28.4474C126.715 28.1717 126.501 27.7616 126.453 27.2897C126.39 26.7451 126.603 26.3305 126.789 25.989C126.971 25.6524 127.108 25.411 127.087 25.1406L127.081 25.0863L127.081 25.0843C127.045 24.8368 126.932 24.6749 126.773 24.5757C126.608 24.4728 126.376 24.4254 126.09 24.4513L126.085 24.4517L126.081 24.4519C125.11 24.4911 124.046 25.205 123.146 26.3851C122.251 27.5582 121.544 29.1603 121.279 30.9035L121.278 30.9052C120.984 32.723 121.199 34.2014 121.769 35.2166C122.335 36.2236 123.255 36.7872 124.422 36.7872L124.422 36.9764L124.306 36.9746C121.938 36.9019 120.547 34.5821 121.065 31.0471L121.091 30.875C121.623 27.3832 123.894 24.4413 125.974 24.269L126.073 24.2629C126.699 24.2061 127.183 24.4615 127.269 25.0575C127.382 25.7953 126.528 26.3061 126.642 27.271C126.728 28.1223 127.411 28.7183 128.379 28.6048C129.119 28.4912 129.831 27.8669 129.745 26.5899C129.633 25.0814 128.418 23.8754 126.316 23.8381L126.215 23.8372C122.144 23.8372 118.443 27.6115 117.931 32.1521C117.483 35.9791 119.572 38.5963 122.733 38.7042L122.884 38.7075C125.988 38.7075 128.977 35.6994 129.916 31.2439L129.631 31.1872C128.777 34.9331 126.642 36.9764 124.422 36.9764L124.422 36.7872C126.511 36.7872 128.601 34.8548 129.446 31.1452L129.487 30.9656L130.141 31.0958L130.102 31.2828C129.153 35.7823 126.115 38.8965 122.885 38.8966H122.883C121.206 38.8819 119.797 38.1909 118.87 36.9927C117.944 35.7966 117.51 34.1126 117.743 32.1301C118.264 27.5157 122.028 23.648 126.215 23.648Z" fill="#333333" fill-opacity="0.4" shape-rendering="crispEdges"/>
<path d="M106.069 22.9123C106.836 19.7934 110.04 18.1137 112.888 18.1427C114.838 18.1717 115.896 18.7549 116.692 19.1235C116.989 19.2516 117.295 19.2803 117.552 19.1719C117.804 19.0658 118.052 18.8106 118.198 18.2816L118.236 18.1427H118.956L117.337 25.8822L116.575 25.8281L116.598 25.6321C116.837 23.5307 116.517 21.8875 115.841 20.7632C115.168 19.6457 114.137 19.0297 112.909 18.975C110.948 18.9207 109.55 20.1098 109.2 21.6927L109.2 21.6946C108.879 23.0804 109.458 24.5422 111.007 25.7006L113.797 27.8004L113.987 27.9445C114.924 28.6703 115.688 29.4831 116.159 30.4178C116.663 31.4195 116.825 32.5506 116.515 33.8419C115.603 37.5694 111.987 38.8686 109.269 38.8399C107.344 38.8394 106.107 38.1376 105.356 37.8328C105.005 37.6989 104.616 37.6348 104.293 37.7167C103.987 37.7944 103.716 38.0085 103.59 38.499L103.554 38.6412H102.778L104.305 30.646L105.064 30.7001L105.047 30.8917C104.878 32.8012 105.106 34.5838 105.795 35.8841C106.477 37.1722 107.611 37.9936 109.3 38.0074C111.339 38.007 113.038 36.8574 113.441 35.091C113.781 33.552 113.164 31.9733 111.67 30.8257L111.522 30.7162L108.704 28.6726C107.621 27.8809 106.819 27.021 106.36 26.065C105.898 25.1047 105.789 24.0591 106.069 22.9123ZM112.886 18.3319C110.096 18.3035 106.993 19.9494 106.253 22.9575C105.712 25.171 106.68 26.9589 108.815 28.5197L111.634 30.5629C113.285 31.7548 113.996 33.4575 113.626 35.1319C113.199 37.0048 111.406 38.1967 109.299 38.1967L109.135 38.1928C105.73 38.0608 104.522 34.6742 104.858 30.8751L104.46 30.8467L103.008 38.4521H103.406L103.42 38.4011C103.722 37.3463 104.699 37.3782 105.428 37.6575C106.196 37.9697 107.392 38.6508 109.271 38.6508C111.947 38.6792 115.448 37.4021 116.331 33.7981C116.91 31.3788 115.779 29.5721 113.87 28.0941L113.683 27.9521L110.893 25.8521C109.349 24.6975 108.713 23.2231 108.985 21.7905L109.015 21.6521C109.385 19.9778 110.865 18.7291 112.915 18.7859C115.505 18.8994 117.27 21.3967 116.786 25.6535L117.185 25.6819L118.722 18.3319H118.381C118.077 19.4314 117.32 19.5724 116.677 19.3221L116.616 19.2967C115.818 18.9278 114.794 18.3602 112.886 18.3319Z" fill="#333333" fill-opacity="0.4" shape-rendering="crispEdges"/>
<path d="M98.6818 18.1615V38.4521H101.699V18.1615H98.6818ZM101.889 38.6412H98.492V17.9723H101.889V38.6412Z" fill="#333333" fill-opacity="0.4" shape-rendering="crispEdges"/>
<path d="M82.237 31.2156C82.237 28.8238 82.9385 26.8584 84.2166 25.4891C85.4961 24.1183 87.3357 23.3642 89.5722 23.3642C91.969 23.3642 93.7786 24.1994 94.9839 25.7132C96.1836 27.2201 96.7652 29.3749 96.7652 31.9817V32.1709H85.6093C85.6476 33.2763 86.0213 34.2708 86.6714 34.9988C87.3563 35.7656 88.3574 36.2479 89.6293 36.2479L89.6292 36.4372L89.5058 36.4356C86.9331 36.374 85.4159 34.3842 85.4159 31.9818H96.5754C96.5754 26.8976 94.341 23.6559 89.7907 23.5558L89.5723 23.5534C85.1882 23.5534 82.4268 26.5048 82.4268 31.2156L82.4289 31.4273C82.5135 35.8528 85.2589 38.8777 89.7146 38.8777C93.4439 38.8777 95.6075 36.7777 96.3476 34.025H93.3585C93.1023 34.9048 92.1059 36.4372 89.6292 36.4372L89.6293 36.2479C92.0053 36.2479 92.9388 34.7878 93.1763 33.9723L93.2159 33.8358H96.595L96.5309 34.0741C96.152 35.4833 95.4062 36.7339 94.27 37.6319C93.1327 38.5308 91.6164 39.0669 89.7145 39.0669C87.4055 39.0669 85.5307 38.2694 84.2342 36.8781C82.9393 35.4885 82.237 33.5237 82.237 31.2156ZM89.6851 25.91C92.0414 25.9595 93.5862 27.5614 93.5862 29.7683H85.4159C85.4159 27.5264 87.1525 25.9088 89.5723 25.9088L89.6851 25.91ZM89.5722 26.098C87.3142 26.0981 85.7046 27.552 85.6102 29.579H93.3924C93.3502 28.586 92.976 27.7406 92.3539 27.133C91.6926 26.4872 90.7387 26.098 89.5722 26.098Z" fill="#333333" fill-opacity="0.4" shape-rendering="crispEdges"/>
<path d="M66.8076 31.2156C66.8076 28.8238 67.5091 26.8584 68.7872 25.4891C70.0667 24.1183 71.9063 23.3642 74.1427 23.3642C76.5395 23.3642 78.3492 24.1994 79.5544 25.7132C80.7542 27.2201 81.3357 29.3749 81.3357 31.9817V32.1709H70.1798C70.2181 33.2763 70.5918 34.2708 71.242 34.9988C71.9269 35.7656 72.9279 36.2479 74.1998 36.2479L74.1997 36.4372L74.0764 36.4356C71.5037 36.374 69.9865 34.3842 69.9865 31.9818H81.1459C81.1459 26.8976 78.9115 23.6559 74.3613 23.5558L74.1428 23.5534C69.7587 23.5534 66.9973 26.5048 66.9973 31.2156L66.9994 31.4273C67.0841 35.8528 69.8295 38.8777 74.2852 38.8777C78.0145 38.8777 80.178 36.7777 80.9182 34.025H77.9291C77.6728 34.9048 76.6765 36.4372 74.1997 36.4372L74.1998 36.2479C76.5759 36.2479 77.5093 34.7878 77.7468 33.9723L77.7865 33.8358H81.1656L81.1015 34.0741C80.7225 35.4833 79.9768 36.7339 78.8405 37.6319C77.7033 38.5308 76.1869 39.0669 74.2851 39.0669C71.976 39.0669 70.1013 38.2694 68.8048 36.8781C67.5098 35.4885 66.8076 33.5237 66.8076 31.2156ZM74.2556 25.91C76.612 25.9595 78.1568 27.5614 78.1568 29.7683H69.9865C69.9865 27.5264 71.723 25.9088 74.1428 25.9088L74.2556 25.91ZM74.1427 26.098C71.8848 26.0981 70.2751 27.552 70.1808 29.579H77.9629C77.9208 28.586 77.5465 27.7406 76.9245 27.133C76.2632 26.4872 75.3092 26.098 74.1427 26.098Z" fill="#333333" fill-opacity="0.4" shape-rendering="crispEdges"/>
<path d="M49.6799 17.9723H58.5524L58.5524 18.1615H49.8696V38.4521H53.2573V30.6196H58.2392C63.0975 30.6196 61.2577 37.4921 62.1463 38.431L62.1678 38.4521H65.7263V38.2534C64.6445 37.9129 66.3526 29.9669 61.6554 29.0872V29.0304C63.9533 28.4717 65.396 26.8681 65.4405 24.1112L65.4416 23.9791C65.4416 20.3475 62.821 18.2283 58.7474 18.163L58.5524 18.1615L58.5524 17.9723C60.6749 17.9723 62.4448 18.5119 63.6876 19.5413C64.9349 20.5743 65.6314 22.0845 65.6314 23.9791L65.6303 24.1143C65.6079 25.5031 65.2382 26.6226 64.5735 27.4724C63.9979 28.2085 63.2102 28.73 62.2629 29.0512C63.186 29.3673 63.832 29.9822 64.2844 30.7465C64.8207 31.6526 65.0857 32.7683 65.2346 33.8467C65.3832 34.9227 65.4192 35.9919 65.4835 36.7859C65.5162 37.1889 65.5556 37.516 65.617 37.75C65.6477 37.867 65.6813 37.9498 65.7152 38.0042C65.7485 38.0576 65.7731 38.0697 65.7834 38.0729L65.9161 38.1147V38.6412H62.0944L62.0401 38.5921C61.8712 38.439 61.7908 38.1782 61.743 37.9033C61.6934 37.6174 61.6714 37.2636 61.6565 36.8763C61.6263 36.0929 61.624 35.1559 61.4993 34.242C61.3746 33.3278 61.1305 32.4687 60.6371 31.8404C60.1522 31.2229 59.4109 30.8087 58.2392 30.8087H53.4471V38.6412H49.6799V17.9723ZM61.8926 24.3763C61.8926 22.9702 61.3778 22.2011 60.6443 21.7689C59.9378 21.3525 59.001 21.2318 58.0344 21.2183L57.8407 21.217H53.4471V27.5358H57.8407L57.8407 27.725H53.2573V21.0277H57.8407C59.9188 21.0277 62.0824 21.4534 62.0824 24.3764C62.0824 27.3277 59.9188 27.725 57.8407 27.725L57.8407 27.5358C58.8763 27.5358 59.8913 27.4349 60.6447 26.9943C61.3772 26.5659 61.8926 25.7974 61.8926 24.3763Z" fill="#333333" fill-opacity="0.4" shape-rendering="crispEdges"/>
</g>
<defs>
<filter id="filter0_dd_26_64" x="0" y="0" width="179" height="56" filterUnits="userSpaceOnUse" color-interpolation-filters="sRGB">
<feFlood flood-opacity="0" result="BackgroundImageFix"/>
<feColorMatrix in="SourceAlpha" type="matrix" values="0 0 0 0 0 0 0 0 0 0 0 0 0 0 0 0 0 0 127 0" result="hardAlpha"/>
<feOffset/>
<feGaussianBlur stdDeviation="7"/>
<feComposite in2="hardAlpha" operator="out"/>
<feColorMatrix type="matrix" values="0 0 0 0 0 0 0 0 0 0 0 0 0 0 0 0 0 0 0.25 0"/>
<feBlend mode="normal" in2="BackgroundImageFix" result="effect1_dropShadow_26_64"/>
<feColorMatrix in="SourceAlpha" type="matrix" values="0 0 0 0 0 0 0 0 0 0 0 0 0 0 0 0 0 0 127 0" result="hardAlpha"/>
<feOffset/>
<feGaussianBlur stdDeviation="2"/>
<feComposite in2="hardAlpha" operator="out"/>
<feColorMatrix type="matrix" values="0 0 0 0 0 0 0 0 0 0 0 0 0 0 0 0 0 0 0.25 0"/>
<feBlend mode="normal" in2="effect1_dropShadow_26_64" result="effect2_dropShadow_26_64"/>
<feBlend mode="normal" in="SourceGraphic" in2="effect2_dropShadow_26_64" result="shape"/>
</filter>
</defs>
</svg>
