<svg xmlns="http://www.w3.org/2000/svg" width="18" height="18" viewBox="0 0 18 18" fill="none">
  <g clip-path="url(#clip0_507_1362)">
    <path d="M11.25 12.9375C11.5607 12.9375 11.8125 13.1893 11.8125 13.5C11.8125 13.8107 11.5607 14.0625 11.25 14.0625H7.5C7.18934 14.0625 6.9375 13.8107 6.9375 13.5C6.9375 13.1893 7.18934 12.9375 7.5 12.9375H11.25Z" fill="#E6E5DC"/>
    <path d="M13.5 9.9375C13.8107 9.9375 14.0625 10.1893 14.0625 10.5C14.0625 10.8107 13.8107 11.0625 13.5 11.0625H7.5C7.18934 11.0625 6.9375 10.8107 6.9375 10.5C6.9375 10.1893 7.18934 9.9375 7.5 9.9375H13.5Z" fill="#E6E5DC"/>
    <path d="M15.9375 3C15.9375 2.75136 15.8387 2.51297 15.6628 2.33716C15.487 2.16134 15.2486 2.0625 15 2.0625H6C5.75136 2.0625 5.51297 2.16134 5.33716 2.33716C5.16134 2.51297 5.0625 2.75136 5.0625 3V15C5.0625 15.3292 4.98246 15.6497 4.83545 15.9375H15C15.2486 15.9375 15.487 15.8387 15.6628 15.6628C15.8387 15.487 15.9375 15.2486 15.9375 15V3ZM2.0625 15C2.0625 15.2486 2.16134 15.487 2.33716 15.6628C2.51297 15.8387 2.75136 15.9375 3 15.9375C3.24864 15.9375 3.48703 15.8387 3.66284 15.6628C3.83866 15.487 3.9375 15.2486 3.9375 15V7.3125H3C2.75136 7.3125 2.51297 7.41134 2.33716 7.58716C2.16134 7.76297 2.0625 8.00136 2.0625 8.25V15ZM17.0625 15C17.0625 15.547 16.845 16.0715 16.4583 16.4583C16.0715 16.845 15.547 17.0625 15 17.0625H3C2.45299 17.0625 1.92854 16.845 1.54175 16.4583C1.15495 16.0715 0.9375 15.547 0.9375 15V8.25C0.9375 7.70299 1.15495 7.17854 1.54175 6.79175C1.92854 6.40495 2.45299 6.1875 3 6.1875H3.9375V3C3.9375 2.45299 4.15495 1.92854 4.54175 1.54175C4.92854 1.15495 5.45299 0.9375 6 0.9375H15C15.547 0.9375 16.0715 1.15495 16.4583 1.54175C16.845 1.92854 17.0625 2.45299 17.0625 3V15Z" fill="#E6E5DC"/>
    <path d="M12.9375 5.25C12.9375 5.14645 12.8536 5.0625 12.75 5.0625H8.25C8.14645 5.0625 8.0625 5.14645 8.0625 5.25V6.75C8.0625 6.85355 8.14645 6.9375 8.25 6.9375H12.75C12.8536 6.9375 12.9375 6.85355 12.9375 6.75V5.25ZM14.0625 6.75C14.0625 7.47487 13.4749 8.0625 12.75 8.0625H8.25C7.52513 8.0625 6.9375 7.47487 6.9375 6.75V5.25C6.9375 4.52513 7.52513 3.9375 8.25 3.9375H12.75C13.4749 3.9375 14.0625 4.52513 14.0625 5.25V6.75Z" fill="#E6E5DC"/>
  </g>
  <defs>
    <clipPath id="clip0_507_1362">
      <rect width="18" height="18" fill="white"/>
    </clipPath>
  </defs>
</svg>