<svg xmlns="http://www.w3.org/2000/svg" width="20" height="20" viewBox="0 0 20 20" fill="none">
  <path d="M7.82136 6.25C7.82136 5.19143 8.10515 4.1623 8.62946 3.26335C7.7589 3.44045 6.92666 3.78547 6.18073 4.28385C5.05016 5.03928 4.16853 6.11275 3.64818 7.36898C3.12785 8.62517 2.99151 10.0076 3.25674 11.3411C3.52201 12.6748 4.17677 13.9002 5.13825 14.8617C6.09974 15.8231 7.32514 16.4779 8.65876 16.7432C9.99233 17.0084 11.3747 16.8721 12.6309 16.3517C13.8871 15.8314 14.9606 14.9497 15.7161 13.8192C16.2146 13.0731 16.5587 12.2404 16.7357 11.3696C15.8369 11.8938 14.8084 12.1785 13.7499 12.1785C12.1776 12.1785 10.6698 11.5537 9.55801 10.4419C8.44624 9.33012 7.82136 7.82228 7.82136 6.25ZM9.07136 6.25C9.07136 7.49076 9.56445 8.68075 10.4418 9.55811C11.3191 10.4355 12.5091 10.9285 13.7499 10.9285C14.9907 10.9285 16.1807 10.4355 17.058 9.55811C17.2367 9.37937 17.5056 9.3255 17.7392 9.4222C17.9727 9.51894 18.1249 9.74721 18.1249 10C18.1249 11.607 17.6481 13.178 16.7553 14.5142C15.8625 15.8501 14.5939 16.8916 13.1094 17.5065C11.6248 18.1215 9.99071 18.2823 8.41462 17.9687C6.8386 17.6552 5.39072 16.8817 4.25446 15.7454C3.11821 14.6092 2.34468 13.1613 2.03115 11.5853C1.71765 10.0092 1.87843 8.37511 2.49339 6.89046C3.10833 5.40599 4.14978 4.13737 5.48574 3.24463C6.82189 2.35184 8.39293 1.875 9.9999 1.875C10.2527 1.875 10.481 2.0272 10.5777 2.26074C10.6744 2.49427 10.6205 2.76316 10.4418 2.94189C9.56445 3.81925 9.07136 5.00924 9.07136 6.25Z" fill="#E6E5DD"/>
</svg>