<svg xmlns="http://www.w3.org/2000/svg" width="20" height="20" viewBox="0 0 20 20" fill="none">
  <path d="M10.0001 3.54199C11.8979 3.54207 13.7526 4.10594 15.3297 5.16146C16.9069 6.21706 18.1356 7.71687 18.8592 9.47135C18.862 9.47824 18.8647 9.48553 18.8673 9.49251C18.9888 9.81989 18.9888 10.18 18.8673 10.5073C18.8647 10.5143 18.862 10.5216 18.8592 10.5285C18.1356 12.2829 16.9069 13.7828 15.3297 14.8384C13.7526 15.8939 11.8978 16.4578 10.0001 16.4578C8.1023 16.4578 6.24694 15.8939 4.66973 14.8384C3.09259 13.7828 1.8639 12.2829 1.14027 10.5285C1.13744 10.5216 1.13473 10.5143 1.13214 10.5073C1.01062 10.18 1.01066 9.81988 1.13214 9.49251L1.14027 9.47135C1.86389 7.71686 3.09253 6.21706 4.66973 5.16146C6.24696 4.10586 8.10226 3.54199 10.0001 3.54199ZM10.0001 4.79199C8.34981 4.79199 6.73622 5.28196 5.36472 6.19987C3.99773 7.11478 2.9316 8.41358 2.30157 9.93278C2.28682 9.9763 2.28753 10.0236 2.30238 10.0671C2.93244 11.5861 3.99787 12.8852 5.36472 13.8C6.7362 14.7178 8.34985 15.2078 10.0001 15.2078C11.6503 15.2078 13.2634 14.7178 14.6347 13.8C16.0015 12.8852 17.0662 11.5859 17.6963 10.0671C17.7112 10.0234 17.7119 9.97646 17.6971 9.93278C17.067 8.41371 16.0016 7.11472 14.6347 6.19987C13.2634 5.28204 11.6503 4.79207 10.0001 4.79199Z" fill="#E6E5DD"/>
  <path d="M11.8747 9.99981C11.8747 8.96428 11.0353 8.12481 9.99974 8.12481C8.96421 8.12481 8.12474 8.96428 8.12474 9.99981C8.12474 11.0353 8.96421 11.8748 9.99974 11.8748C11.0353 11.8748 11.8747 11.0353 11.8747 9.99981ZM13.1247 9.99981C13.1247 11.7257 11.7256 13.1248 9.99974 13.1248C8.27385 13.1248 6.87474 11.7257 6.87474 9.99981C6.87474 8.27392 8.27385 6.87481 9.99974 6.87481C11.7256 6.87481 13.1247 8.27392 13.1247 9.99981Z" fill="#E6E5DD"/>
</svg>