<svg xmlns="http://www.w3.org/2000/svg" width="20" height="20" viewBox="0 0 20 20" fill="none">
  <path d="M12.8914 5.39144C13.1355 5.14736 13.5311 5.14736 13.7752 5.39144L17.9419 9.55811C18.186 9.80218 18.186 10.1978 17.9419 10.4419L13.7752 14.6086C13.5311 14.8526 13.1355 14.8526 12.8914 14.6086C12.6474 14.3645 12.6474 13.9688 12.8914 13.7248L16.6162 10L12.8914 6.27523C12.6474 6.03115 12.6474 5.63552 12.8914 5.39144Z" fill="#E6E5DD"/>
  <path d="M17.5 9.375C17.8452 9.375 18.125 9.65482 18.125 10C18.125 10.3452 17.8452 10.625 17.5 10.625H7.5C7.15482 10.625 6.875 10.3452 6.875 10C6.875 9.65482 7.15482 9.375 7.5 9.375H17.5Z" fill="#E6E5DD"/>
  <path d="M1.875 15.8333V4.16667C1.875 3.55888 2.11662 2.97616 2.54639 2.54639C2.97616 2.11662 3.55888 1.875 4.16667 1.875H7.5C7.84518 1.875 8.125 2.15482 8.125 2.5C8.125 2.84518 7.84518 3.125 7.5 3.125H4.16667C3.8904 3.125 3.62553 3.23483 3.43018 3.43018C3.23483 3.62553 3.125 3.8904 3.125 4.16667V15.8333C3.125 16.1096 3.23483 16.3745 3.43018 16.5698C3.62553 16.7652 3.8904 16.875 4.16667 16.875H7.5C7.84518 16.875 8.125 17.1548 8.125 17.5C8.125 17.8452 7.84518 18.125 7.5 18.125H4.16667C3.55888 18.125 2.97616 17.8834 2.54639 17.4536C2.11662 17.0238 1.875 16.4411 1.875 15.8333Z" fill="#E6E5DD"/>
</svg>