<svg xmlns="http://www.w3.org/2000/svg" width="42" height="44" viewBox="0 0 42 44" fill="none">
  <rect x="7.09961" y="8.10059" width="27" height="27" rx="13.5" stroke="#E6E5DD" stroke-opacity="0.2"/>
  <g filter="url(#filter0_dd_507_1366)">
    <mask id="path-3-outside-1_507_1366" maskUnits="userSpaceOnUse" x="13.5996" y="13.6006" width="14" height="16" fill="black">
      <rect fill="white" x="13.5996" y="13.6006" width="14" height="16"/>
      <path d="M21.4468 14.913C21.4844 14.9133 21.522 14.9136 21.5596 14.9137C21.6585 14.9144 21.7573 14.9168 21.8561 14.9195C21.9357 14.9214 22.0153 14.9221 22.0949 14.9227C22.1914 14.9235 22.2878 14.9248 22.3843 14.9263C22.4021 14.9266 22.4198 14.9269 22.4382 14.9271C23.0644 14.9378 23.7054 15.049 24.2615 15.3695C24.2966 15.3896 24.3319 15.409 24.3673 15.4283C24.667 15.5928 24.9359 15.8008 25.1824 16.0452C25.2215 16.0837 25.2613 16.1204 25.3021 16.1568C26.0016 16.81 26.5262 17.9541 26.5879 18.9383C26.635 19.824 26.5479 20.6572 26.1779 21.4617C26.1704 21.4781 26.1628 21.4945 26.1551 21.5113C26.0452 21.7483 25.924 21.9698 25.7759 22.1818C25.768 22.1933 25.7601 22.2047 25.752 22.2165C25.4072 22.7123 24.9733 23.1335 24.4653 23.4313C24.4075 23.4653 24.3513 23.5015 24.2949 23.5382C24.2024 23.5958 24.1089 23.6383 24.0082 23.6771C23.9706 23.6916 23.9333 23.7069 23.8965 23.7234C23.4513 23.9216 22.9485 24.0027 22.469 24.0113C22.5437 24.1049 22.6195 24.1934 22.7054 24.2753C22.7261 24.2954 22.7468 24.3154 22.7675 24.3355C22.7837 24.3513 22.7837 24.3513 22.8003 24.3673C22.8613 24.4268 22.9215 24.4874 22.9818 24.5478C23.0842 24.6503 23.1872 24.752 23.2911 24.853C23.3313 24.8922 23.3713 24.9317 23.4112 24.9713C23.4224 24.9824 23.4336 24.9935 23.4451 25.0049C23.4665 25.0261 23.4878 25.0474 23.5092 25.0686C23.5632 25.1223 23.6179 25.1749 23.6737 25.2266C23.7474 25.2949 23.8186 25.3656 23.8895 25.437C23.9944 25.5421 24.0998 25.6464 24.2061 25.7499C24.2636 25.806 24.321 25.8623 24.3783 25.9187C24.4907 26.0293 24.6034 26.1395 24.7163 26.2496C24.7524 26.2849 24.7886 26.3201 24.8247 26.3554C24.8337 26.3641 24.8426 26.3729 24.8519 26.3819C24.9003 26.4292 24.9487 26.4767 24.997 26.5243C25.119 26.6452 25.119 26.6452 25.2438 26.7629C25.3282 26.8406 25.4089 26.9224 25.4903 27.0036C25.5697 27.0828 25.6499 27.1609 25.731 27.2382C25.7829 27.2878 25.8342 27.3379 25.8856 27.3882C26.0613 27.5622 26.0613 27.5622 26.2441 27.7276C26.2584 27.7408 26.2727 27.754 26.2875 27.7677C26.2875 27.7805 26.2875 27.7934 26.2875 27.8066C25.9905 27.8112 25.6935 27.8146 25.3965 27.8167C25.2586 27.8177 25.1207 27.8191 24.9828 27.8213C24.8625 27.8232 24.7423 27.8245 24.622 27.8249C24.5583 27.8252 24.4947 27.8258 24.4311 27.8272C24.3599 27.8288 24.2887 27.8288 24.2175 27.8287C24.1967 27.8294 24.1758 27.8301 24.1543 27.8308C24.0312 27.8292 23.972 27.8056 23.8838 27.7119C23.8566 27.6788 23.8296 27.6455 23.8028 27.612C23.7807 27.5904 23.7584 27.5692 23.7354 27.5487C23.6622 27.482 23.5921 27.4121 23.5219 27.3419C23.4464 27.2665 23.3708 27.1914 23.2935 27.1181C23.1964 27.0257 23.1019 26.9303 23.0073 26.8351C22.8896 26.7168 22.7709 26.5998 22.6517 26.4831C22.506 26.3405 22.3614 26.1968 22.2174 26.0521C22.1435 25.9778 22.0691 25.9041 21.994 25.8311C21.9031 25.7427 21.8131 25.6533 21.7234 25.5635C21.7105 25.5506 21.6976 25.5378 21.6843 25.5245C21.6251 25.4651 21.5667 25.4053 21.5096 25.3436C21.4543 25.2843 21.3962 25.2294 21.3368 25.1747C21.2746 25.1167 21.2147 25.056 21.1547 24.9954C21.1274 24.9679 21.1 24.9404 21.0727 24.9129C21.0588 24.8989 21.045 24.885 21.0307 24.8706C20.9648 24.8043 20.8988 24.7381 20.8327 24.6719C20.8199 24.659 20.8071 24.6462 20.794 24.633C20.5162 24.3544 20.5162 24.3545 20.2365 24.0781C20.185 24.0275 20.1335 23.9769 20.0823 23.926C20.0655 23.9093 20.0655 23.9093 20.0483 23.8923C20.0271 23.8712 20.0059 23.85 19.9847 23.8289C19.9311 23.7758 19.8769 23.7237 19.8216 23.6726C19.7449 23.6015 19.671 23.5275 19.5972 23.453C19.4363 23.291 19.2746 23.1298 19.1096 22.9725C19.029 22.8954 18.9493 22.8174 18.8698 22.739C18.8578 22.7271 18.8457 22.7153 18.8333 22.7031C18.822 22.6919 18.8107 22.6807 18.799 22.6692C18.7889 22.6592 18.7788 22.6492 18.7683 22.6389C18.7419 22.61 18.7419 22.61 18.7054 22.5516C18.7237 22.5516 18.7419 22.5515 18.7608 22.5515C19.207 22.5503 19.6533 22.5489 20.0996 22.547C20.3154 22.5462 20.5312 22.5454 20.747 22.5449C20.9353 22.5444 21.1236 22.5438 21.3118 22.5429C21.4114 22.5424 21.5109 22.5421 21.6104 22.5419C21.7045 22.5418 21.7985 22.5414 21.8925 22.5408C21.9267 22.5407 21.9609 22.5406 21.9951 22.5406C22.7079 22.5411 23.3983 22.3282 23.9489 21.8315C23.9587 21.8227 23.9686 21.8139 23.9787 21.8048C24.244 21.5638 24.4339 21.2763 24.6066 20.9557C24.6146 20.9411 24.6225 20.9266 24.6307 20.9116C24.68 20.8196 24.7212 20.728 24.7551 20.6284C24.7597 20.6151 24.7643 20.6018 24.7691 20.5881C24.8026 20.4892 24.8292 20.3897 24.8507 20.2871C24.8624 20.2355 24.8624 20.2355 24.8802 20.1823C24.9432 19.9693 24.943 19.7356 24.9424 19.5142C24.9423 19.5003 24.9423 19.4864 24.9423 19.4721C24.9411 19.1046 24.8854 18.7653 24.7528 18.4255C24.748 18.4131 24.7433 18.4008 24.7383 18.3881C24.6253 18.1014 24.4704 17.8415 24.2778 17.608C24.2645 17.5915 24.2511 17.5749 24.2374 17.5579C24.011 17.282 23.7468 17.0796 23.4464 16.9056C23.4084 16.8835 23.3707 16.8607 23.3338 16.8366C22.9943 16.6251 22.5458 16.5744 22.162 16.5725C22.1372 16.5723 22.1123 16.5721 22.0874 16.5719C22.0205 16.5714 21.9535 16.571 21.8866 16.5706C21.8164 16.5702 21.7462 16.5696 21.6761 16.5691C21.5434 16.5682 21.4108 16.5673 21.2781 16.5664C21.127 16.5655 20.9759 16.5644 20.8248 16.5633C20.5142 16.5611 20.2036 16.559 19.893 16.557C19.9131 16.5227 19.9334 16.4884 19.9537 16.4541C19.965 16.435 19.9762 16.4159 19.9879 16.3962C20.0217 16.3416 20.0581 16.294 20.099 16.2456C20.1413 16.1934 20.1803 16.1387 20.2195 16.0838C20.2855 15.9918 20.3525 15.9008 20.4207 15.8105C20.4925 15.7149 20.5633 15.6183 20.6343 15.5219C20.6598 15.4873 20.6853 15.4527 20.7108 15.4182C20.7185 15.4076 20.7263 15.397 20.7343 15.3861C20.751 15.3636 20.7678 15.3412 20.7847 15.3189C20.8279 15.262 20.867 15.2056 20.9015 15.1422C21.0406 14.9001 21.1967 14.9041 21.4468 14.913Z"/>
      <path d="M20.2887 18.3025C20.2887 18.167 20.4176 18.0713 20.5291 18.1366C20.5607 18.1551 20.5607 18.1551 20.5931 18.174C20.6157 18.1873 20.6382 18.2006 20.6615 18.2144C20.6973 18.2354 20.6973 18.2354 20.7339 18.2568C20.951 18.3846 21.1668 18.5149 21.3824 18.6454C21.5318 18.7358 21.6817 18.8255 21.8318 18.9149C21.8571 18.9299 21.8824 18.945 21.9084 18.9605C22.0491 19.0442 22.19 19.1275 22.3312 19.2103C22.354 19.2237 22.354 19.2237 22.3773 19.2374C22.4511 19.2808 22.5249 19.324 22.5988 19.3672C22.6551 19.4002 22.7111 19.4333 22.7665 19.4673C22.8912 19.5439 22.9283 19.7017 22.8003 19.772C22.6372 19.8635 22.4787 19.9613 22.3209 20.0621C22.1606 20.1641 21.9999 20.265 21.8366 20.362C21.6394 20.4794 21.4441 20.6002 21.2491 20.7214C21.2178 20.7408 21.1865 20.7602 21.1552 20.7796C21.1321 20.794 21.1321 20.794 21.1086 20.8086C21.0933 20.8181 21.078 20.8276 21.0622 20.8373C21.047 20.8468 21.0318 20.8562 21.0162 20.866C20.8722 20.9553 20.7283 21.0446 20.584 21.1334C20.5629 21.1465 20.5417 21.1597 20.5199 21.1732C20.5005 21.1851 20.4812 21.197 20.4613 21.2092C20.4363 21.2246 20.4363 21.2246 20.4109 21.2403C20.3532 21.2725 20.2887 21.2208 20.2887 21.1514C20.2887 20.2101 20.2887 19.2677 20.2887 18.3025Z"/>
      <path d="M18.8011 20.045L17.3386 20.0882L20.1834 14.7974C20.2053 14.7086 20.1556 14.5923 20.099 14.6011L16.3163 14.8574C16.2927 14.8611 16.2734 14.8882 16.2676 14.9294L14.6019 22.0954C14.5884 22.1828 14.6366 22.2833 14.6889 22.2752L16.1674 22.0136L15.1558 28.4532C15.1585 28.5785 15.2511 28.6527 15.2866 28.557L18.8804 20.2534C18.9126 20.1695 18.8619 20.0356 18.8011 20.045Z"/>
    </mask>
    <path d="M21.4468 14.913C21.4844 14.9133 21.522 14.9136 21.5596 14.9137C21.6585 14.9144 21.7573 14.9168 21.8561 14.9195C21.9357 14.9214 22.0153 14.9221 22.0949 14.9227C22.1914 14.9235 22.2878 14.9248 22.3843 14.9263C22.4021 14.9266 22.4198 14.9269 22.4382 14.9271C23.0644 14.9378 23.7054 15.049 24.2615 15.3695C24.2966 15.3896 24.3319 15.409 24.3673 15.4283C24.667 15.5928 24.9359 15.8008 25.1824 16.0452C25.2215 16.0837 25.2613 16.1204 25.3021 16.1568C26.0016 16.81 26.5262 17.9541 26.5879 18.9383C26.635 19.824 26.5479 20.6572 26.1779 21.4617C26.1704 21.4781 26.1628 21.4945 26.1551 21.5113C26.0452 21.7483 25.924 21.9698 25.7759 22.1818C25.768 22.1933 25.7601 22.2047 25.752 22.2165C25.4072 22.7123 24.9733 23.1335 24.4653 23.4313C24.4075 23.4653 24.3513 23.5015 24.2949 23.5382C24.2024 23.5958 24.1089 23.6383 24.0082 23.6771C23.9706 23.6916 23.9333 23.7069 23.8965 23.7234C23.4513 23.9216 22.9485 24.0027 22.469 24.0113C22.5437 24.1049 22.6195 24.1934 22.7054 24.2753C22.7261 24.2954 22.7468 24.3154 22.7675 24.3355C22.7837 24.3513 22.7837 24.3513 22.8003 24.3673C22.8613 24.4268 22.9215 24.4874 22.9818 24.5478C23.0842 24.6503 23.1872 24.752 23.2911 24.853C23.3313 24.8922 23.3713 24.9317 23.4112 24.9713C23.4224 24.9824 23.4336 24.9935 23.4451 25.0049C23.4665 25.0261 23.4878 25.0474 23.5092 25.0686C23.5632 25.1223 23.6179 25.1749 23.6737 25.2266C23.7474 25.2949 23.8186 25.3656 23.8895 25.437C23.9944 25.5421 24.0998 25.6464 24.2061 25.7499C24.2636 25.806 24.321 25.8623 24.3783 25.9187C24.4907 26.0293 24.6034 26.1395 24.7163 26.2496C24.7524 26.2849 24.7886 26.3201 24.8247 26.3554C24.8337 26.3641 24.8426 26.3729 24.8519 26.3819C24.9003 26.4292 24.9487 26.4767 24.997 26.5243C25.119 26.6452 25.119 26.6452 25.2438 26.7629C25.3282 26.8406 25.4089 26.9224 25.4903 27.0036C25.5697 27.0828 25.6499 27.1609 25.731 27.2382C25.7829 27.2878 25.8342 27.3379 25.8856 27.3882C26.0613 27.5622 26.0613 27.5622 26.2441 27.7276C26.2584 27.7408 26.2727 27.754 26.2875 27.7677C26.2875 27.7805 26.2875 27.7934 26.2875 27.8066C25.9905 27.8112 25.6935 27.8146 25.3965 27.8167C25.2586 27.8177 25.1207 27.8191 24.9828 27.8213C24.8625 27.8232 24.7423 27.8245 24.622 27.8249C24.5583 27.8252 24.4947 27.8258 24.4311 27.8272C24.3599 27.8288 24.2887 27.8288 24.2175 27.8287C24.1967 27.8294 24.1758 27.8301 24.1543 27.8308C24.0312 27.8292 23.972 27.8056 23.8838 27.7119C23.8566 27.6788 23.8296 27.6455 23.8028 27.612C23.7807 27.5904 23.7584 27.5692 23.7354 27.5487C23.6622 27.482 23.5921 27.4121 23.5219 27.3419C23.4464 27.2665 23.3708 27.1914 23.2935 27.1181C23.1964 27.0257 23.1019 26.9303 23.0073 26.8351C22.8896 26.7168 22.7709 26.5998 22.6517 26.4831C22.506 26.3405 22.3614 26.1968 22.2174 26.0521C22.1435 25.9778 22.0691 25.9041 21.994 25.8311C21.9031 25.7427 21.8131 25.6533 21.7234 25.5635C21.7105 25.5506 21.6976 25.5378 21.6843 25.5245C21.6251 25.4651 21.5667 25.4053 21.5096 25.3436C21.4543 25.2843 21.3962 25.2294 21.3368 25.1747C21.2746 25.1167 21.2147 25.056 21.1547 24.9954C21.1274 24.9679 21.1 24.9404 21.0727 24.9129C21.0588 24.8989 21.045 24.885 21.0307 24.8706C20.9648 24.8043 20.8988 24.7381 20.8327 24.6719C20.8199 24.659 20.8071 24.6462 20.794 24.633C20.5162 24.3544 20.5162 24.3545 20.2365 24.0781C20.185 24.0275 20.1335 23.9769 20.0823 23.926C20.0655 23.9093 20.0655 23.9093 20.0483 23.8923C20.0271 23.8712 20.0059 23.85 19.9847 23.8289C19.9311 23.7758 19.8769 23.7237 19.8216 23.6726C19.7449 23.6015 19.671 23.5275 19.5972 23.453C19.4363 23.291 19.2746 23.1298 19.1096 22.9725C19.029 22.8954 18.9493 22.8174 18.8698 22.739C18.8578 22.7271 18.8457 22.7153 18.8333 22.7031C18.822 22.6919 18.8107 22.6807 18.799 22.6692C18.7889 22.6592 18.7788 22.6492 18.7683 22.6389C18.7419 22.61 18.7419 22.61 18.7054 22.5516C18.7237 22.5516 18.7419 22.5515 18.7608 22.5515C19.207 22.5503 19.6533 22.5489 20.0996 22.547C20.3154 22.5462 20.5312 22.5454 20.747 22.5449C20.9353 22.5444 21.1236 22.5438 21.3118 22.5429C21.4114 22.5424 21.5109 22.5421 21.6104 22.5419C21.7045 22.5418 21.7985 22.5414 21.8925 22.5408C21.9267 22.5407 21.9609 22.5406 21.9951 22.5406C22.7079 22.5411 23.3983 22.3282 23.9489 21.8315C23.9587 21.8227 23.9686 21.8139 23.9787 21.8048C24.244 21.5638 24.4339 21.2763 24.6066 20.9557C24.6146 20.9411 24.6225 20.9266 24.6307 20.9116C24.68 20.8196 24.7212 20.728 24.7551 20.6284C24.7597 20.6151 24.7643 20.6018 24.7691 20.5881C24.8026 20.4892 24.8292 20.3897 24.8507 20.2871C24.8624 20.2355 24.8624 20.2355 24.8802 20.1823C24.9432 19.9693 24.943 19.7356 24.9424 19.5142C24.9423 19.5003 24.9423 19.4864 24.9423 19.4721C24.9411 19.1046 24.8854 18.7653 24.7528 18.4255C24.748 18.4131 24.7433 18.4008 24.7383 18.3881C24.6253 18.1014 24.4704 17.8415 24.2778 17.608C24.2645 17.5915 24.2511 17.5749 24.2374 17.5579C24.011 17.282 23.7468 17.0796 23.4464 16.9056C23.4084 16.8835 23.3707 16.8607 23.3338 16.8366C22.9943 16.6251 22.5458 16.5744 22.162 16.5725C22.1372 16.5723 22.1123 16.5721 22.0874 16.5719C22.0205 16.5714 21.9535 16.571 21.8866 16.5706C21.8164 16.5702 21.7462 16.5696 21.6761 16.5691C21.5434 16.5682 21.4108 16.5673 21.2781 16.5664C21.127 16.5655 20.9759 16.5644 20.8248 16.5633C20.5142 16.5611 20.2036 16.559 19.893 16.557C19.9131 16.5227 19.9334 16.4884 19.9537 16.4541C19.965 16.435 19.9762 16.4159 19.9879 16.3962C20.0217 16.3416 20.0581 16.294 20.099 16.2456C20.1413 16.1934 20.1803 16.1387 20.2195 16.0838C20.2855 15.9918 20.3525 15.9008 20.4207 15.8105C20.4925 15.7149 20.5633 15.6183 20.6343 15.5219C20.6598 15.4873 20.6853 15.4527 20.7108 15.4182C20.7185 15.4076 20.7263 15.397 20.7343 15.3861C20.751 15.3636 20.7678 15.3412 20.7847 15.3189C20.8279 15.262 20.867 15.2056 20.9015 15.1422C21.0406 14.9001 21.1967 14.9041 21.4468 14.913Z" fill="#FF0005" shape-rendering="crispEdges"/>
    <path d="M20.2887 18.3025C20.2887 18.167 20.4176 18.0713 20.5291 18.1366C20.5607 18.1551 20.5607 18.1551 20.5931 18.174C20.6157 18.1873 20.6382 18.2006 20.6615 18.2144C20.6973 18.2354 20.6973 18.2354 20.7339 18.2568C20.951 18.3846 21.1668 18.5149 21.3824 18.6454C21.5318 18.7358 21.6817 18.8255 21.8318 18.9149C21.8571 18.9299 21.8824 18.945 21.9084 18.9605C22.0491 19.0442 22.19 19.1275 22.3312 19.2103C22.354 19.2237 22.354 19.2237 22.3773 19.2374C22.4511 19.2808 22.5249 19.324 22.5988 19.3672C22.6551 19.4002 22.7111 19.4333 22.7665 19.4673C22.8912 19.5439 22.9283 19.7017 22.8003 19.772C22.6372 19.8635 22.4787 19.9613 22.3209 20.0621C22.1606 20.1641 21.9999 20.265 21.8366 20.362C21.6394 20.4794 21.4441 20.6002 21.2491 20.7214C21.2178 20.7408 21.1865 20.7602 21.1552 20.7796C21.1321 20.794 21.1321 20.794 21.1086 20.8086C21.0933 20.8181 21.078 20.8276 21.0622 20.8373C21.047 20.8468 21.0318 20.8562 21.0162 20.866C20.8722 20.9553 20.7283 21.0446 20.584 21.1334C20.5629 21.1465 20.5417 21.1597 20.5199 21.1732C20.5005 21.1851 20.4812 21.197 20.4613 21.2092C20.4363 21.2246 20.4363 21.2246 20.4109 21.2403C20.3532 21.2725 20.2887 21.2208 20.2887 21.1514C20.2887 20.2101 20.2887 19.2677 20.2887 18.3025Z" fill="#FF0005" shape-rendering="crispEdges"/>
    <path d="M18.8011 20.045L17.3386 20.0882L20.1834 14.7974C20.2053 14.7086 20.1556 14.5923 20.099 14.6011L16.3163 14.8574C16.2927 14.8611 16.2734 14.8882 16.2676 14.9294L14.6019 22.0954C14.5884 22.1828 14.6366 22.2833 14.6889 22.2752L16.1674 22.0136L15.1558 28.4532C15.1585 28.5785 15.2511 28.6527 15.2866 28.557L18.8804 20.2534C18.9126 20.1695 18.8619 20.0356 18.8011 20.045Z" fill="#FF0005" shape-rendering="crispEdges"/>
    <path d="M21.4468 14.913C21.4844 14.9133 21.522 14.9136 21.5596 14.9137C21.6585 14.9144 21.7573 14.9168 21.8561 14.9195C21.9357 14.9214 22.0153 14.9221 22.0949 14.9227C22.1914 14.9235 22.2878 14.9248 22.3843 14.9263C22.4021 14.9266 22.4198 14.9269 22.4382 14.9271C23.0644 14.9378 23.7054 15.049 24.2615 15.3695C24.2966 15.3896 24.3319 15.409 24.3673 15.4283C24.667 15.5928 24.9359 15.8008 25.1824 16.0452C25.2215 16.0837 25.2613 16.1204 25.3021 16.1568C26.0016 16.81 26.5262 17.9541 26.5879 18.9383C26.635 19.824 26.5479 20.6572 26.1779 21.4617C26.1704 21.4781 26.1628 21.4945 26.1551 21.5113C26.0452 21.7483 25.924 21.9698 25.7759 22.1818C25.768 22.1933 25.7601 22.2047 25.752 22.2165C25.4072 22.7123 24.9733 23.1335 24.4653 23.4313C24.4075 23.4653 24.3513 23.5015 24.2949 23.5382C24.2024 23.5958 24.1089 23.6383 24.0082 23.6771C23.9706 23.6916 23.9333 23.7069 23.8965 23.7234C23.4513 23.9216 22.9485 24.0027 22.469 24.0113C22.5437 24.1049 22.6195 24.1934 22.7054 24.2753C22.7261 24.2954 22.7468 24.3154 22.7675 24.3355C22.7837 24.3513 22.7837 24.3513 22.8003 24.3673C22.8613 24.4268 22.9215 24.4874 22.9818 24.5478C23.0842 24.6503 23.1872 24.752 23.2911 24.853C23.3313 24.8922 23.3713 24.9317 23.4112 24.9713C23.4224 24.9824 23.4336 24.9935 23.4451 25.0049C23.4665 25.0261 23.4878 25.0474 23.5092 25.0686C23.5632 25.1223 23.6179 25.1749 23.6737 25.2266C23.7474 25.2949 23.8186 25.3656 23.8895 25.437C23.9944 25.5421 24.0998 25.6464 24.2061 25.7499C24.2636 25.806 24.321 25.8623 24.3783 25.9187C24.4907 26.0293 24.6034 26.1395 24.7163 26.2496C24.7524 26.2849 24.7886 26.3201 24.8247 26.3554C24.8337 26.3641 24.8426 26.3729 24.8519 26.3819C24.9003 26.4292 24.9487 26.4767 24.997 26.5243C25.119 26.6452 25.119 26.6452 25.2438 26.7629C25.3282 26.8406 25.4089 26.9224 25.4903 27.0036C25.5697 27.0828 25.6499 27.1609 25.731 27.2382C25.7829 27.2878 25.8342 27.3379 25.8856 27.3882C26.0613 27.5622 26.0613 27.5622 26.2441 27.7276C26.2584 27.7408 26.2727 27.754 26.2875 27.7677C26.2875 27.7805 26.2875 27.7934 26.2875 27.8066C25.9905 27.8112 25.6935 27.8146 25.3965 27.8167C25.2586 27.8177 25.1207 27.8191 24.9828 27.8213C24.8625 27.8232 24.7423 27.8245 24.622 27.8249C24.5583 27.8252 24.4947 27.8258 24.4311 27.8272C24.3599 27.8288 24.2887 27.8288 24.2175 27.8287C24.1967 27.8294 24.1758 27.8301 24.1543 27.8308C24.0312 27.8292 23.972 27.8056 23.8838 27.7119C23.8566 27.6788 23.8296 27.6455 23.8028 27.612C23.7807 27.5904 23.7584 27.5692 23.7354 27.5487C23.6622 27.482 23.5921 27.4121 23.5219 27.3419C23.4464 27.2665 23.3708 27.1914 23.2935 27.1181C23.1964 27.0257 23.1019 26.9303 23.0073 26.8351C22.8896 26.7168 22.7709 26.5998 22.6517 26.4831C22.506 26.3405 22.3614 26.1968 22.2174 26.0521C22.1435 25.9778 22.0691 25.9041 21.994 25.8311C21.9031 25.7427 21.8131 25.6533 21.7234 25.5635C21.7105 25.5506 21.6976 25.5378 21.6843 25.5245C21.6251 25.4651 21.5667 25.4053 21.5096 25.3436C21.4543 25.2843 21.3962 25.2294 21.3368 25.1747C21.2746 25.1167 21.2147 25.056 21.1547 24.9954C21.1274 24.9679 21.1 24.9404 21.0727 24.9129C21.0588 24.8989 21.045 24.885 21.0307 24.8706C20.9648 24.8043 20.8988 24.7381 20.8327 24.6719C20.8199 24.659 20.8071 24.6462 20.794 24.633C20.5162 24.3544 20.5162 24.3545 20.2365 24.0781C20.185 24.0275 20.1335 23.9769 20.0823 23.926C20.0655 23.9093 20.0655 23.9093 20.0483 23.8923C20.0271 23.8712 20.0059 23.85 19.9847 23.8289C19.9311 23.7758 19.8769 23.7237 19.8216 23.6726C19.7449 23.6015 19.671 23.5275 19.5972 23.453C19.4363 23.291 19.2746 23.1298 19.1096 22.9725C19.029 22.8954 18.9493 22.8174 18.8698 22.739C18.8578 22.7271 18.8457 22.7153 18.8333 22.7031C18.822 22.6919 18.8107 22.6807 18.799 22.6692C18.7889 22.6592 18.7788 22.6492 18.7683 22.6389C18.7419 22.61 18.7419 22.61 18.7054 22.5516C18.7237 22.5516 18.7419 22.5515 18.7608 22.5515C19.207 22.5503 19.6533 22.5489 20.0996 22.547C20.3154 22.5462 20.5312 22.5454 20.747 22.5449C20.9353 22.5444 21.1236 22.5438 21.3118 22.5429C21.4114 22.5424 21.5109 22.5421 21.6104 22.5419C21.7045 22.5418 21.7985 22.5414 21.8925 22.5408C21.9267 22.5407 21.9609 22.5406 21.9951 22.5406C22.7079 22.5411 23.3983 22.3282 23.9489 21.8315C23.9587 21.8227 23.9686 21.8139 23.9787 21.8048C24.244 21.5638 24.4339 21.2763 24.6066 20.9557C24.6146 20.9411 24.6225 20.9266 24.6307 20.9116C24.68 20.8196 24.7212 20.728 24.7551 20.6284C24.7597 20.6151 24.7643 20.6018 24.7691 20.5881C24.8026 20.4892 24.8292 20.3897 24.8507 20.2871C24.8624 20.2355 24.8624 20.2355 24.8802 20.1823C24.9432 19.9693 24.943 19.7356 24.9424 19.5142C24.9423 19.5003 24.9423 19.4864 24.9423 19.4721C24.9411 19.1046 24.8854 18.7653 24.7528 18.4255C24.748 18.4131 24.7433 18.4008 24.7383 18.3881C24.6253 18.1014 24.4704 17.8415 24.2778 17.608C24.2645 17.5915 24.2511 17.5749 24.2374 17.5579C24.011 17.282 23.7468 17.0796 23.4464 16.9056C23.4084 16.8835 23.3707 16.8607 23.3338 16.8366C22.9943 16.6251 22.5458 16.5744 22.162 16.5725C22.1372 16.5723 22.1123 16.5721 22.0874 16.5719C22.0205 16.5714 21.9535 16.571 21.8866 16.5706C21.8164 16.5702 21.7462 16.5696 21.6761 16.5691C21.5434 16.5682 21.4108 16.5673 21.2781 16.5664C21.127 16.5655 20.9759 16.5644 20.8248 16.5633C20.5142 16.5611 20.2036 16.559 19.893 16.557C19.9131 16.5227 19.9334 16.4884 19.9537 16.4541C19.965 16.435 19.9762 16.4159 19.9879 16.3962C20.0217 16.3416 20.0581 16.294 20.099 16.2456C20.1413 16.1934 20.1803 16.1387 20.2195 16.0838C20.2855 15.9918 20.3525 15.9008 20.4207 15.8105C20.4925 15.7149 20.5633 15.6183 20.6343 15.5219C20.6598 15.4873 20.6853 15.4527 20.7108 15.4182C20.7185 15.4076 20.7263 15.397 20.7343 15.3861C20.751 15.3636 20.7678 15.3412 20.7847 15.3189C20.8279 15.262 20.867 15.2056 20.9015 15.1422C21.0406 14.9001 21.1967 14.9041 21.4468 14.913Z" stroke="white" stroke-opacity="0.2" stroke-width="1.2" shape-rendering="crispEdges" mask="url(#path-3-outside-1_507_1366)"/>
    <path d="M20.2887 18.3025C20.2887 18.167 20.4176 18.0713 20.5291 18.1366C20.5607 18.1551 20.5607 18.1551 20.5931 18.174C20.6157 18.1873 20.6382 18.2006 20.6615 18.2144C20.6973 18.2354 20.6973 18.2354 20.7339 18.2568C20.951 18.3846 21.1668 18.5149 21.3824 18.6454C21.5318 18.7358 21.6817 18.8255 21.8318 18.9149C21.8571 18.9299 21.8824 18.945 21.9084 18.9605C22.0491 19.0442 22.19 19.1275 22.3312 19.2103C22.354 19.2237 22.354 19.2237 22.3773 19.2374C22.4511 19.2808 22.5249 19.324 22.5988 19.3672C22.6551 19.4002 22.7111 19.4333 22.7665 19.4673C22.8912 19.5439 22.9283 19.7017 22.8003 19.772C22.6372 19.8635 22.4787 19.9613 22.3209 20.0621C22.1606 20.1641 21.9999 20.265 21.8366 20.362C21.6394 20.4794 21.4441 20.6002 21.2491 20.7214C21.2178 20.7408 21.1865 20.7602 21.1552 20.7796C21.1321 20.794 21.1321 20.794 21.1086 20.8086C21.0933 20.8181 21.078 20.8276 21.0622 20.8373C21.047 20.8468 21.0318 20.8562 21.0162 20.866C20.8722 20.9553 20.7283 21.0446 20.584 21.1334C20.5629 21.1465 20.5417 21.1597 20.5199 21.1732C20.5005 21.1851 20.4812 21.197 20.4613 21.2092C20.4363 21.2246 20.4363 21.2246 20.4109 21.2403C20.3532 21.2725 20.2887 21.2208 20.2887 21.1514C20.2887 20.2101 20.2887 19.2677 20.2887 18.3025Z" stroke="white" stroke-opacity="0.2" stroke-width="1.2" shape-rendering="crispEdges" mask="url(#path-3-outside-1_507_1366)"/>
    <path d="M18.8011 20.045L17.3386 20.0882L20.1834 14.7974C20.2053 14.7086 20.1556 14.5923 20.099 14.6011L16.3163 14.8574C16.2927 14.8611 16.2734 14.8882 16.2676 14.9294L14.6019 22.0954C14.5884 22.1828 14.6366 22.2833 14.6889 22.2752L16.1674 22.0136L15.1558 28.4532C15.1585 28.5785 15.2511 28.6527 15.2866 28.557L18.8804 20.2534C18.9126 20.1695 18.8619 20.0356 18.8011 20.045Z" stroke="white" stroke-opacity="0.2" stroke-width="1.2" shape-rendering="crispEdges" mask="url(#path-3-outside-1_507_1366)"/>
  </g>
  <defs>
    <filter id="filter0_dd_507_1366" x="0" y="0" width="41.1992" height="43.2012" filterUnits="userSpaceOnUse" color-interpolation-filters="sRGB">
      <feFlood flood-opacity="0" result="BackgroundImageFix"/>
      <feColorMatrix in="SourceAlpha" type="matrix" values="0 0 0 0 0 0 0 0 0 0 0 0 0 0 0 0 0 0 127 0" result="hardAlpha"/>
      <feOffset/>
      <feGaussianBlur stdDeviation="7"/>
      <feComposite in2="hardAlpha" operator="out"/>
      <feColorMatrix type="matrix" values="0 0 0 0 0 0 0 0 0 0 0 0 0 0 0 0 0 0 0.25 0"/>
      <feBlend mode="normal" in2="BackgroundImageFix" result="effect1_dropShadow_507_1366"/>
      <feColorMatrix in="SourceAlpha" type="matrix" values="0 0 0 0 0 0 0 0 0 0 0 0 0 0 0 0 0 0 127 0" result="hardAlpha"/>
      <feOffset/>
      <feGaussianBlur stdDeviation="2"/>
      <feComposite in2="hardAlpha" operator="out"/>
      <feColorMatrix type="matrix" values="0 0 0 0 0 0 0 0 0 0 0 0 0 0 0 0 0 0 0.25 0"/>
      <feBlend mode="normal" in2="effect1_dropShadow_507_1366" result="effect2_dropShadow_507_1366"/>
      <feBlend mode="normal" in="SourceGraphic" in2="effect2_dropShadow_507_1366" result="shape"/>
    </filter>
  </defs>
</svg>