<svg xmlns="http://www.w3.org/2000/svg" width="20" height="20" viewBox="0 0 20 20" fill="none">
  <path d="M10.0085 9.37484C10.3537 9.37484 10.6335 9.65466 10.6335 9.99984C10.6335 10.345 10.3537 10.6248 10.0085 10.6248H10.0004C9.65518 10.6248 9.37535 10.345 9.37535 9.99984C9.37535 9.65466 9.65518 9.37484 10.0004 9.37484H10.0085Z" fill="#E6E5DD"/>
  <path d="M12.7087 4.99984V3.33317C12.7087 3.0569 12.5989 2.79203 12.4035 2.59668C12.2082 2.40133 11.9433 2.2915 11.667 2.2915H8.33369C8.05742 2.2915 7.79255 2.40133 7.5972 2.59668C7.40185 2.79203 7.29202 3.0569 7.29202 3.33317V4.99984C7.29202 5.34502 7.0122 5.62484 6.66702 5.62484C6.32184 5.62484 6.04202 5.34502 6.04202 4.99984V3.33317C6.04202 2.72538 6.28364 2.14266 6.71341 1.71289C7.14318 1.28312 7.7259 1.0415 8.33369 1.0415H11.667C12.2748 1.0415 12.8575 1.28312 13.2873 1.71289C13.7171 2.14266 13.9587 2.72538 13.9587 3.33317V4.99984C13.9587 5.34502 13.6789 5.62484 13.3337 5.62484C12.9885 5.62484 12.7087 5.34502 12.7087 4.99984Z" fill="#E6E5DD"/>
  <path d="M17.9895 10.3115C18.2775 10.1214 18.6652 10.2009 18.8553 10.4889C19.0454 10.777 18.966 11.1647 18.6779 11.3548C16.1031 13.0547 13.0857 13.9606 10.0004 13.9606C6.91501 13.9606 3.89761 13.0547 1.32278 11.3548C1.03476 11.1647 0.955287 10.777 1.14537 10.4889C1.33553 10.2009 1.72321 10.1214 2.01126 10.3115C4.38176 11.8765 7.15983 12.7106 10.0004 12.7106C12.8409 12.7106 15.619 11.8765 17.9895 10.3115Z" fill="#E6E5DD"/>
  <path d="M17.7087 6.6665C17.7087 6.09121 17.2423 5.62484 16.667 5.62484H3.33369C2.75839 5.62484 2.29202 6.09121 2.29202 6.6665V14.9998C2.29202 15.5751 2.75839 16.0415 3.33369 16.0415H16.667C17.2423 16.0415 17.7087 15.5751 17.7087 14.9998V6.6665ZM18.9587 14.9998C18.9587 16.2655 17.9327 17.2915 16.667 17.2915H3.33369C2.06804 17.2915 1.04202 16.2655 1.04202 14.9998V6.6665C1.04202 5.40085 2.06804 4.37484 3.33369 4.37484H16.667C17.9327 4.37484 18.9587 5.40085 18.9587 6.6665V14.9998Z" fill="#E6E5DD"/>
</svg>