<svg xmlns="http://www.w3.org/2000/svg" width="20" height="20" viewBox="0 0 20 20" fill="none">
  <path d="M17.7135 10.8332C17.7135 10.6522 17.678 10.473 17.6086 10.3058C17.5392 10.1387 17.4373 9.98679 17.3091 9.85905L12.0584 4.6084C11.8144 4.36432 11.8144 3.96869 12.0584 3.72461C12.3025 3.48053 12.6981 3.48053 12.9422 3.72461L18.1912 8.97363C18.4359 9.21747 18.63 9.50748 18.7625 9.8265C18.895 10.1456 18.9635 10.4877 18.9635 10.8332C18.9635 11.1787 18.895 11.5208 18.7625 11.8398C18.6302 12.1586 18.4356 12.4474 18.1912 12.6911L18.1921 12.6919L14.6089 16.2751C14.3648 16.5191 13.9692 16.5191 13.7251 16.2751C13.481 16.031 13.481 15.6354 13.7251 15.3913L17.3091 11.8073C17.4373 11.6796 17.5392 11.5276 17.6086 11.3605C17.678 11.1934 17.7135 11.0141 17.7135 10.8332Z" fill="#E6E5DD"/>
  <path d="M1.04199 9.30973V4.99984C1.04199 4.61306 1.19575 4.24224 1.46924 3.96875C1.74273 3.69526 2.11355 3.5415 2.50033 3.5415H6.81022C7.4179 3.54163 8.00084 3.78316 8.4305 4.21289L13.1855 8.96794C13.6781 9.46377 13.9546 10.1343 13.9546 10.8332C13.9546 11.5321 13.6781 12.2026 13.1855 12.6984L10.1989 15.6851C9.70306 16.1776 9.03257 16.4541 8.33366 16.4541C7.63475 16.4541 6.96426 16.1776 6.46842 15.6851L1.71338 10.93C1.28365 10.5004 1.04212 9.91742 1.04199 9.30973ZM2.29199 9.30973L2.29687 9.41227C2.32052 9.65086 2.42613 9.87524 2.59717 10.0462L7.34896 14.798C7.61062 15.058 7.96477 15.2041 8.33366 15.2041C8.70255 15.2041 9.05669 15.058 9.31836 14.798L12.3001 11.8162C12.5593 11.5547 12.7046 11.2014 12.7046 10.8332C12.7046 10.465 12.5593 10.1116 12.3001 9.8501L7.54671 5.09668C7.37573 4.92564 7.15135 4.82003 6.91276 4.79639L6.81022 4.7915H2.50033C2.44507 4.7915 2.3921 4.81347 2.35303 4.85254C2.31396 4.89161 2.29199 4.94458 2.29199 4.99984V9.30973Z" fill="#E6E5DD"/>
  <path d="M5.41699 8.33317C5.64711 8.33317 5.83366 8.14662 5.83366 7.9165C5.83366 7.68639 5.64711 7.49984 5.41699 7.49984C5.18687 7.49984 5.00033 7.68639 5.00033 7.9165C5.00033 8.14662 5.18687 8.33317 5.41699 8.33317Z" fill="#E6E5DD"/>
  <path d="M5.41699 7.70817C5.30193 7.70817 5.20866 7.80144 5.20866 7.9165C5.20866 8.03156 5.30193 8.12484 5.41699 8.12484C5.53205 8.12484 5.62533 8.03156 5.62533 7.9165C5.62533 7.80144 5.53205 7.70817 5.41699 7.70817ZM6.45866 7.9165C6.45866 8.4918 5.99229 8.95817 5.41699 8.95817C4.8417 8.95817 4.37533 8.4918 4.37533 7.9165C4.37533 7.34121 4.8417 6.87484 5.41699 6.87484C5.99229 6.87484 6.45866 7.34121 6.45866 7.9165Z" fill="#E6E5DD"/>
</svg>