<svg xmlns="http://www.w3.org/2000/svg" width="20" height="20" viewBox="0 0 20 20" fill="none">
  <path d="M1.875 15.8333V2.5C1.875 2.15482 2.15482 1.875 2.5 1.875C2.84518 1.875 3.125 2.15482 3.125 2.5V15.8333C3.125 16.1096 3.23483 16.3745 3.43018 16.5698C3.62553 16.7652 3.8904 16.875 4.16667 16.875H17.5C17.8452 16.875 18.125 17.1548 18.125 17.5C18.125 17.8452 17.8452 18.125 17.5 18.125H4.16667C3.55888 18.125 2.97616 17.8834 2.54639 17.4536C2.11662 17.0238 1.875 16.4411 1.875 15.8333Z" fill="#E6E5DD"/>
  <path d="M14.375 14.1667V7.5C14.375 7.15482 14.6548 6.875 15 6.875C15.3452 6.875 15.625 7.15482 15.625 7.5V14.1667C15.625 14.5118 15.3452 14.7917 15 14.7917C14.6548 14.7917 14.375 14.5118 14.375 14.1667Z" fill="#E6E5DD"/>
  <path d="M10.2083 14.1667V4.16667C10.2083 3.82149 10.4882 3.54167 10.8333 3.54167C11.1785 3.54167 11.4583 3.82149 11.4583 4.16667V14.1667C11.4583 14.5118 11.1785 14.7917 10.8333 14.7917C10.4882 14.7917 10.2083 14.5118 10.2083 14.1667Z" fill="#E6E5DD"/>
  <path d="M6.04167 14.1667V11.6667C6.04167 11.3215 6.32149 11.0417 6.66667 11.0417C7.01184 11.0417 7.29167 11.3215 7.29167 11.6667V14.1667C7.29167 14.5118 7.01184 14.7917 6.66667 14.7917C6.32149 14.7917 6.04167 14.5118 6.04167 14.1667Z" fill="#E6E5DD"/>
</svg>