<svg xmlns="http://www.w3.org/2000/svg" width="20" height="20" viewBox="0 0 20 20" fill="none">
  <path d="M17.7087 9.1665C17.7087 7.34314 16.9846 5.59416 15.6953 4.30485C14.406 3.01554 12.657 2.2915 10.8337 2.2915C10.4885 2.2915 10.2087 2.01168 10.2087 1.6665C10.2087 1.32133 10.4885 1.0415 10.8337 1.0415C12.9885 1.0415 15.0554 1.89733 16.5791 3.42106C18.1028 4.94479 18.9587 7.01162 18.9587 9.1665C18.9587 9.51168 18.6788 9.7915 18.3337 9.7915C17.9885 9.7915 17.7087 9.51168 17.7087 9.1665Z" fill="#34C724"/>
  <path d="M14.3753 9.1665C14.3753 8.2272 14.0019 7.32663 13.3377 6.66243C12.6735 5.99824 11.773 5.62484 10.8337 5.62484C10.4885 5.62484 10.2087 5.34502 10.2087 4.99984C10.2087 4.65466 10.4885 4.37484 10.8337 4.37484C12.1045 4.37484 13.3229 4.88003 14.2215 5.77865C15.1201 6.67726 15.6253 7.89567 15.6253 9.1665C15.6253 9.51168 15.3455 9.7915 15.0003 9.7915C14.6551 9.7915 14.3753 9.51168 14.3753 9.1665Z" fill="#34C724"/>
  <path d="M6.87533 3.33317C6.87533 3.0569 6.7655 2.79203 6.57015 2.59668C6.3748 2.40133 6.10993 2.2915 5.83366 2.2915H3.33366C3.05739 2.2915 2.79252 2.40133 2.59717 2.59668C2.40182 2.79203 2.29199 3.0569 2.29199 3.33317C2.29199 7.14566 3.80677 10.8017 6.5026 13.4976C9.19844 16.1934 12.8545 17.7082 16.667 17.7082C16.9433 17.7082 17.2081 17.5983 17.4035 17.403C17.5988 17.2076 17.7087 16.9428 17.7087 16.6665V14.1665C17.7087 13.8902 17.5988 13.6254 17.4035 13.43C17.2081 13.2347 16.9433 13.1248 16.667 13.1248H14.167C14.0054 13.1248 13.8461 13.1625 13.7015 13.2347C13.5569 13.307 13.4307 13.4121 13.3337 13.5415L13.3304 13.5456L13.035 13.9329C12.8343 14.1964 12.5499 14.384 12.2285 14.4644C11.907 14.5447 11.567 14.5132 11.2658 14.3748C11.2611 14.3727 11.2566 14.3698 11.252 14.3675C8.81343 13.1707 6.83991 11.1998 5.63997 8.76286L5.63835 8.76042C5.49079 8.45772 5.45257 8.11317 5.53011 7.78548C5.60773 7.45773 5.79628 7.16634 6.06396 6.96191L6.06885 6.95866L6.45866 6.6665C6.58803 6.56948 6.69314 6.44331 6.76546 6.29867C6.83768 6.15411 6.87533 5.99476 6.87533 5.83317V3.33317ZM8.12533 5.83317C8.12533 6.18882 8.04263 6.53962 7.88363 6.85775C7.72455 7.17591 7.49354 7.45322 7.20898 7.66667L6.82243 7.95475L6.82324 7.95557C6.785 7.98477 6.75783 8.02674 6.74674 8.07357C6.73591 8.11954 6.74121 8.16763 6.76139 8.21029L6.97135 8.61556C8.06033 10.6145 9.74269 12.2312 11.7915 13.2396C11.8336 13.258 11.8803 13.2621 11.925 13.251C11.9709 13.2395 12.0118 13.213 12.0405 13.1753L12.0413 13.1745L12.3368 12.7871C12.5498 12.5045 12.8258 12.2748 13.1424 12.1165C13.4605 11.9575 13.8113 11.8748 14.167 11.8748H16.667C17.2748 11.8748 17.8575 12.1165 18.2873 12.5462C18.717 12.976 18.9587 13.5587 18.9587 14.1665V16.6665C18.9587 17.2743 18.717 17.857 18.2873 18.2868C17.8575 18.7166 17.2748 18.9582 16.667 18.9582C12.523 18.9582 8.54907 17.3116 5.61881 14.3813C2.68856 11.4511 1.04199 7.47718 1.04199 3.33317C1.04199 2.72538 1.28361 2.14266 1.71338 1.71289C2.14315 1.28312 2.72587 1.0415 3.33366 1.0415H5.83366C6.44145 1.0415 7.02417 1.28312 7.45394 1.71289C7.88371 2.14266 8.12533 2.72538 8.12533 3.33317V5.83317Z" fill="#34C724"/>
</svg>