<svg xmlns="http://www.w3.org/2000/svg" width="20" height="20" viewBox="0 0 20 20" fill="none">
  <path d="M17.7087 6.66667C17.7087 6.09137 17.2423 5.625 16.667 5.625H3.33366C2.75836 5.625 2.29199 6.09137 2.29199 6.66667V13.3333C2.29199 13.9086 2.75836 14.375 3.33366 14.375H16.667C17.2423 14.375 17.7087 13.9086 17.7087 13.3333V6.66667ZM18.9587 13.3333C18.9587 14.599 17.9326 15.625 16.667 15.625H3.33366C2.06801 15.625 1.04199 14.599 1.04199 13.3333V6.66667C1.04199 5.40101 2.06801 4.375 3.33366 4.375H16.667C17.9326 4.375 18.9587 5.40101 18.9587 6.66667V13.3333Z" fill="#E6E5DD"/>
  <path d="M11.042 10C11.042 9.4247 10.5756 8.95833 10.0003 8.95833C9.42503 8.95833 8.95866 9.4247 8.95866 10C8.95866 10.5753 9.42503 11.0417 10.0003 11.0417C10.5756 11.0417 11.042 10.5753 11.042 10ZM12.292 10C12.292 11.2657 11.266 12.2917 10.0003 12.2917C8.73467 12.2917 7.70866 11.2657 7.70866 10C7.70866 8.73435 8.73467 7.70833 10.0003 7.70833C11.266 7.70833 12.292 8.73435 12.292 10Z" fill="#E6E5DD"/>
  <path d="M5.00846 9.375C5.35364 9.375 5.63346 9.65482 5.63346 10C5.63346 10.3452 5.35364 10.625 5.00846 10.625H5.00033C4.65515 10.625 4.37533 10.3452 4.37533 10C4.37533 9.65482 4.65515 9.375 5.00033 9.375H5.00846ZM15.0085 9.375C15.3536 9.375 15.6335 9.65482 15.6335 10C15.6335 10.3452 15.3536 10.625 15.0085 10.625H15.0003C14.6551 10.625 14.3753 10.3452 14.3753 10C14.3753 9.65482 14.6551 9.375 15.0003 9.375H15.0085Z" fill="#E6E5DD"/>
</svg>