<svg xmlns="http://www.w3.org/2000/svg" width="20" height="20" viewBox="0 0 20 20" fill="none">
  <path d="M13.4414 13.4414C13.6855 13.1974 14.0812 13.1974 14.3252 13.4414L17.9418 17.058C18.1858 17.3021 18.1858 17.6977 17.9418 17.9418C17.6977 18.1858 17.3021 18.1858 17.058 17.9418L13.4414 14.3252C13.1974 14.0812 13.1974 13.6855 13.4414 13.4414Z" fill="#E6E5DD"/>
  <path d="M15.2083 9.16667C15.2083 5.82995 12.5034 3.125 9.16667 3.125C5.82995 3.125 3.125 5.82995 3.125 9.16667C3.125 12.5034 5.82995 15.2083 9.16667 15.2083C12.5034 15.2083 15.2083 12.5034 15.2083 9.16667ZM16.4583 9.16667C16.4583 13.1937 13.1937 16.4583 9.16667 16.4583C5.13959 16.4583 1.875 13.1937 1.875 9.16667C1.875 5.13959 5.13959 1.875 9.16667 1.875C13.1937 1.875 16.4583 5.13959 16.4583 9.16667Z" fill="#E6E5DD"/>
</svg>