<svg width="20" height="20" viewBox="0 0 20 20" fill="none" xmlns="http://www.w3.org/2000/svg">
<path d="M8.08851 7.18525L9.81485 2.95389C9.88255 2.78796 10.1175 2.78796 10.1852 2.95389L11.9116 7.18525C11.9402 7.25555 12.0062 7.30355 12.082 7.30916L16.6448 7.64715C16.8235 7.66038 16.896 7.8838 16.7591 7.9994L13.2616 10.9532C13.2035 11.0023 13.1782 11.0801 13.1964 11.1539L14.2908 15.5902C14.3338 15.7642 14.1436 15.9025 13.9912 15.808L10.1054 13.3987C10.0409 13.3587 9.9592 13.3587 9.89464 13.3987L6.00882 15.808C5.85644 15.9025 5.66631 15.7642 5.70925 15.5902L6.80362 11.1539C6.82184 11.0801 6.79659 11.0023 6.73849 10.9532L3.24095 7.9994C3.10407 7.8838 3.17655 7.66038 3.35522 7.64715L7.91811 7.30916C7.99382 7.30355 8.05983 7.25555 8.08851 7.18525Z" fill="#C1121F" stroke="#E6E5DD" stroke-opacity="0.1" stroke-width="0.6" stroke-linecap="round" stroke-linejoin="round"/>
</svg>
