<svg xmlns="http://www.w3.org/2000/svg" width="20" height="20" viewBox="0 0 20 20" fill="none">
  <path d="M9.37507 17.5001V10.8334C9.37507 10.4882 9.6549 10.2084 10.0001 10.2084C10.3453 10.2084 10.6251 10.4882 10.6251 10.8334V17.5001C10.6251 17.8452 10.3453 18.1251 10.0001 18.1251C9.6549 18.1251 9.37507 17.8452 9.37507 17.5001Z" fill="#E6E5DD"/>
  <path d="M6.99198 1.89764C7.96872 1.82022 8.95022 1.96602 9.86226 2.32407C10.7744 2.6822 11.5932 3.24328 12.2565 3.96469C12.813 4.57004 13.2462 5.27556 13.5374 6.04152H14.5831C15.5218 6.04141 16.4358 6.34343 17.1897 6.90252C17.9437 7.46166 18.4977 8.24871 18.7701 9.14698C19.0426 10.0452 19.0189 11.0074 18.7026 11.8911C18.3863 12.7748 17.7945 13.5337 17.014 14.055C16.727 14.2466 16.339 14.1693 16.1473 13.8825C15.9555 13.5955 16.0327 13.2067 16.3198 13.015C16.8772 12.6426 17.2999 12.1007 17.5258 11.4696C17.7517 10.8384 17.7692 10.1514 17.5747 9.50994C17.38 8.86831 16.9837 8.30614 16.4451 7.90675C15.9066 7.50739 15.2536 7.29144 14.5831 7.29152H13.0914C12.8152 7.29138 12.5715 7.11021 12.4925 6.84555C12.2664 6.08832 11.8709 5.392 11.3361 4.81023C10.8013 4.22867 10.1411 3.77656 9.40572 3.4878C8.67008 3.19899 7.87828 3.08108 7.09045 3.14357C6.30263 3.20605 5.5391 3.44716 4.85819 3.84832C4.17747 4.24942 3.59702 4.8002 3.1606 5.45883C2.72411 6.11766 2.44338 6.86778 2.33947 7.65122C2.23563 8.43455 2.31121 9.23141 2.56083 9.98113C2.81049 10.7309 3.22717 11.4143 3.7799 11.979C4.02126 12.2257 4.01755 12.6214 3.77095 12.8628C3.52427 13.1042 3.12779 13.0997 2.88635 12.853C2.20099 12.1527 1.68384 11.3055 1.3743 10.3758C1.06479 9.44616 0.971274 8.45817 1.10005 7.48683C1.22889 6.51541 1.57692 5.58565 2.11812 4.76873C2.65936 3.95178 3.37991 3.26829 4.22424 2.77085C5.06848 2.27354 6.01522 1.9751 6.99198 1.89764Z" fill="#E6E5DD"/>
  <path d="M9.60538 10.3484C9.85087 10.1481 10.2131 10.1627 10.442 10.3915L13.7753 13.7248C14.0194 13.9689 14.0194 14.3646 13.7753 14.6086C13.5312 14.8527 13.1356 14.8527 12.8915 14.6086L10.0001 11.7172L7.10864 14.6086C6.86456 14.8527 6.46892 14.8527 6.22485 14.6086C5.98077 14.3646 5.98077 13.9689 6.22485 13.7248L9.55818 10.3915L9.60538 10.3484Z" fill="#E6E5DD"/>
</svg>